<?xml version="1.0" encoding="UTF-8" standalone="no"?>
<!-- Created with Inkscape (http://www.inkscape.org/) -->

<svg
   width="512"
   height="512"
   id="svg5562"
   version="1.1"
   xml:space="preserve"
   xmlns="http://www.w3.org/2000/svg"
   xmlns:svg="http://www.w3.org/2000/svg"
   xmlns:rdf="http://www.w3.org/1999/02/22-rdf-syntax-ns#"
   xmlns:cc="http://creativecommons.org/ns#"
   xmlns:dc="http://purl.org/dc/elements/1.1/"><defs
     id="defs5564" /><metadata
     id="metadata5567"><rdf:RDF><cc:Work
         rdf:about=""><dc:format>image/svg+xml</dc:format><dc:type
           rdf:resource="http://purl.org/dc/dcmitype/StillImage" /></cc:Work></rdf:RDF></metadata><g
     id="layer1"
     transform="translate(-5683.2416,6024.073)"><g
       id="g1043"
       transform="matrix(31.999203,0,0,32,-5196.4874,-22664.073)"><title
         id="title1042">auth-face</title><path
         id="path1042"
         style="font-style:normal;font-variant:normal;font-weight:normal;font-stretch:normal;font-size:medium;line-height:normal;font-family:sans-serif;font-variant-ligatures:normal;font-variant-position:normal;font-variant-caps:normal;font-variant-numeric:normal;font-variant-alternates:normal;font-feature-settings:normal;text-indent:0;text-align:start;text-decoration:none;text-decoration-line:none;text-decoration-style:solid;word-spacing:normal;text-transform:none;writing-mode:lr-tb;direction:ltr;text-orientation:mixed;dominant-baseline:auto;baseline-shift:baseline;text-anchor:start;white-space:normal;shape-padding:0;clip-rule:nonzero;isolation:auto;mix-blend-mode:normal;color-interpolation:sRGB;color-interpolation-filters:linearRGB;vector-effect:none;fill:#ffffff;fill-opacity:1;fill-rule:nonzero;stroke:none;color-rendering:auto;image-rendering:auto;shape-rendering:auto;text-rendering:auto"
         d="m 343,521 c -1.6447,0 -3,1.3553 -3,3 v 2 h 1 c 0,0 1,0 1,-1 v -1 c 0,-0.5713 0.4287,-1 1,-1 h 1 c 0,0 1,0 1,-1 v -1 z m 8,0 v 1 c 0,1 1,1 1,1 h 1 c 0.5713,0 1,0.4287 1,1 v 1 c 0,1 1,1 1,1 h 1 v -2 c 0,-1.6447 -1.3553,-3 -3,-3 z m -5,4.01758 c -0.55228,0 -1,0.44772 -1,1 0,0.55228 0.44772,1 1,1 0.55228,0 1,-0.44772 1,-1 0,-0.55228 -0.44772,-1 -1,-1 z m 4,0 c -0.55228,0 -1,0.44772 -1,1 0,0.55228 0.44772,1 1,1 0.55228,0 1,-0.44772 1,-1 0,-0.55228 -0.44772,-1 -1,-1 z m -5.57422,3.98828 a 0.5,0.5 0 0 0 -0.14844,0.0469 0.5,0.5 0 0 0 -0.22461,0.66993 c 0,0 1.18061,2.27734 3.94727,2.27734 2.76666,0 3.94727,-2.27734 3.94727,-2.27734 a 0.5,0.5 0 0 0 -0.22461,-0.66993 0.5,0.5 0 0 0 -0.66993,0.22461 c 0,0 -0.8194,1.72266 -3.05273,1.72266 -2.23333,0 -3.05273,-1.72266 -3.05273,-1.72266 a 0.5,0.5 0 0 0 -0.52149,-0.27148 z M 340,530 v 2 c 0,1.6447 1.3553,3 3,3 h 2 v -2 h -2 c -0.5713,0 -1,-0.4287 -1,-1 v -1 c 0,-1 -1,-1 -1,-1 z m 15,0 c -1,0 -1,1 -1,1 v 1 c 0,0.5713 -0.4287,1 -1,1 h -2 v 2 h 2 c 1.6447,0 3,-1.3553 3,-3 v -2 z" /></g></g></svg>
