<?xml version="1.0" encoding="UTF-8" standalone="no"?>
<!-- Created with Inkscape (http://www.inkscape.org/) -->

<svg
   width="511.99997"
   height="512"
   id="svg5562"
   version="1.1"
   xml:space="preserve"
   xmlns="http://www.w3.org/2000/svg"
   xmlns:svg="http://www.w3.org/2000/svg"
   xmlns:rdf="http://www.w3.org/1999/02/22-rdf-syntax-ns#"
   xmlns:cc="http://creativecommons.org/ns#"
   xmlns:dc="http://purl.org/dc/elements/1.1/"><defs
     id="defs5564" /><metadata
     id="metadata5567"><rdf:RDF><cc:Work
         rdf:about=""><dc:format>image/svg+xml</dc:format><dc:type
           rdf:resource="http://purl.org/dc/dcmitype/StillImage" /></cc:Work></rdf:RDF></metadata><g
     id="layer1"
     transform="translate(-5166.9096,6155.4728)"><g
       id="g1103"
       transform="matrix(31.999996,0,0,31.999266,-4177.1019,-17931.191)"
       style="enable-background:new"><title
         id="title1102">auth-fingerprint</title><path
         id="path1102"
         d="m 268.07227,520 c -1.2011,-0.0123 -2.40509,0.28478 -3.48829,0.89062 a 1,1 0 0 0 -0.38476,1.36133 1,1 0 0 0 1.35937,0.38477 c 1.54974,-0.86678 3.43903,-0.84756 4.97071,0.0508 C 272.06097,523.5858 273,525.2243 273,527 v 1 a 1,1 0 0 0 1,1 1,1 0 0 0 1,-1 v -1 a 1,1 0 0 0 -0.002,-0.0566 c -0.02,-2.46047 -1.33227,-4.73627 -3.45703,-5.98242 -1.07058,-0.62789 -2.26766,-0.94865 -3.46875,-0.96094 z m -5.19922,2.83008 a 1,1 0 0 0 -0.19336,0.0254 1,1 0 0 0 -0.62305,0.44531 C 261.36603,524.41063 261,525.69282 261,527 v 5.0625 a 1,1 0 0 0 1,1 1,1 0 0 0 1,-1 V 527 c 0,-0.93382 0.2625,-1.84973 0.75586,-2.64258 a 1,1 0 0 0 -0.32227,-1.37695 1,1 0 0 0 -0.56054,-0.15039 z M 268,523 c -2.1973,0 -4,1.80269 -4,4 v 1 a 1,1 0 0 0 1,1 1,1 0 0 0 1,-1 v -1 c 0,-1.11645 0.8836,-2 2,-2 1.1164,0 2,0.88355 2,2 v 5 c 0,0 0.009,0.43992 0.17578,0.94141 0.16716,0.50149 0.49934,1.14777 1.11719,1.76562 a 1,1 0 0 0 1.41406,0 1,1 0 0 0 0,-1.41406 c -0.38215,-0.38215 -0.54998,-0.73587 -0.63281,-0.98438 C 271.99138,532.06009 272,532 272,532 v -5 c 0,-2.19731 -1.8027,-4 -4,-4 z m 0,3 a 1,1 0 0 0 -1,1 v 5 c 0,0 -5.8e-4,0.59474 0.14453,1.32031 0.14512,0.72557 0.41274,1.65102 1.14844,2.38672 a 1,1 0 0 0 1.41406,0 1,1 0 0 0 0,-1.41406 c -0.2643,-0.2643 -0.49668,-0.83886 -0.60156,-1.36328 C 269.00058,532.40526 269,532 269,532 v -5 a 1,1 0 0 0 -1,-1 z m -3,4 a 1,1 0 0 0 -1,1 v 3 a 1,1 0 0 0 1,1 1,1 0 0 0 1,-1 v -3 a 1,1 0 0 0 -1,-1 z m 9,0 a 1,1.0000167 0 0 0 -1,1 1,1.0000167 0 0 0 1,1 1,1.0000167 0 0 0 1,-1 1,1.0000167 0 0 0 -1,-1 z"
         transform="translate(31.999997,-152)"
         style="fill:#ffffff;fill-opacity:1" /></g></g></svg>
