<?xml version="1.0" encoding="UTF-8" standalone="no"?>
<svg
   viewBox="-4 -4 32 32"
   width="32"
   height="32"
   id="svg2"
   version="1.0"
   xml:space="preserve"
   sodipodi:docname="grabbing.svg"
   inkscape:version="1.4.4 (dcaf3e7d9e, 2026-05-05)"
   xmlns:inkscape="http://www.inkscape.org/namespaces/inkscape"
   xmlns:sodipodi="http://sodipodi.sourceforge.net/DTD/sodipodi-0.dtd"
   xmlns="http://www.w3.org/2000/svg"
   xmlns:svg="http://www.w3.org/2000/svg"
   xmlns:rdf="http://www.w3.org/1999/02/22-rdf-syntax-ns#"
   xmlns:cc="http://creativecommons.org/ns#"
   xmlns:dc="http://purl.org/dc/elements/1.1/">
  <defs
   id="defs4">
  <filter
   style="color-interpolation-filters:sRGB"
   id="filter524"
   x="-0.14861532"
   y="-0.17142857"
   width="1.2972306"
   height="1.3428571">
  <feGaussianBlur
   stdDeviation="1 1"
   result="blur"
   id="feGaussianBlur524" />
  </filter>
  <filter
   style="color-interpolation-filters:sRGB"
   id="filter847"
   x="-0.089169197"
   y="-0.10285715"
   width="1.1783384"
   height="1.2057143">
  <feGaussianBlur
   stdDeviation="0.6 0.6"
   result="blur"
   id="feGaussianBlur847" />
  </filter>
  </defs>
  <sodipodi:namedview
   id="namedview1"
   pagecolor="#ffffff"
   bordercolor="#000000"
   borderopacity="0.25"
   inkscape:showpageshadow="2"
   inkscape:pageopacity="0.0"
   inkscape:pagecheckerboard="0"
   inkscape:deskcolor="#d1d1d1"
   inkscape:zoom="1"
   inkscape:cx="12"
   inkscape:cy="12"
   inkscape:window-width="5120"
   inkscape:window-height="1371"
   inkscape:window-x="0"
   inkscape:window-y="0"
   inkscape:window-maximized="1"
   inkscape:current-layer="svg2" />
  <metadata
   id="metadata7">
  <rdf:RDF>
  <cc:Work
   rdf:about="">
  <dc:format>image/svg+xml</dc:format>
  <dc:type
   rdf:resource="http://purl.org/dc/dcmitype/StillImage" />
  <dc:creator>
  <cc:Agent>
  <dc:title>Jakub Steiner</dc:title>
  </cc:Agent>
  </dc:creator>
  <cc:license
   rdf:resource="http://en.wikipedia.org/wiki/MIT_License" />
  <dc:source>http://jimmac.musichall.cz/themes.php?skin=7</dc:source>
  <dc:subject>
  <rdf:Bag>
  <rdf:li>negative</rdf:li>
  <rdf:li>inverted</rdf:li>
  <rdf:li>cursor</rdf:li>
  <rdf:li>theme</rdf:li>
  <rdf:li>X</rdf:li>
  <rdf:li>xorg</rdf:li>
  <rdf:li>xcursor</rdf:li>
  </rdf:Bag>
  </dc:subject>
  <dc:description>Inverted variant of the DMZ cursor theme.</dc:description>
  </cc:Work>
  </rdf:RDF>
  </metadata>
  <g
   id="layer5"
   style="display:inline"
   transform="translate(-112,-16)">
  <path
   id="path496"
   style="display:inline;opacity:0.2;fill:#000000;fill-opacity:1;filter:url(#filter524)"
   d="m 124,22 c -0.90495,0 -1.5492,0.672339 -1.79297,1.501953 C 121.86455,23.227718 121.46947,23 121,23 c -1.09865,0 -2,0.901354 -2,2 v 1.386719 c -0.22448,-0.05232 -0.39407,-0.228071 -0.63867,-0.19336 -0.57164,0.08112 -1.16694,0.393514 -1.72656,0.953125 0,0 -0.304,0.301356 -0.53125,0.75586 -0.22725,0.454502 -0.40194,1.141429 -0.0625,1.820312 l 2.0039,4.384766 C 118.62522,35.384094 119.83334,36 121,36 h 8 c 0.94724,0 1.74104,-0.435473 2.24805,-1.091797 C 131.75505,34.251879 132,33.395302 132,32.5 V 26 c 0,-0.652274 -0.43256,-1.147345 -0.91406,-1.474609 C 130.60444,24.198126 130.03759,24 129.48828,24 129.29977,24 129.16889,24.114424 129,24.142578 V 24 c 0,-1.098658 -0.90137,-2 -2,-2 -0.63359,0 -1.13463,0.340163 -1.50195,0.804688 C 125.1332,22.340073 124.63279,22 124,22 Z" />
  <path
   id="path819"
   style="display:inline;opacity:0.3;fill:#000000;fill-opacity:1;filter:url(#filter847)"
   d="m 124,22 c -0.90495,0 -1.5492,0.672339 -1.79297,1.501953 C 121.86455,23.227718 121.46947,23 121,23 c -1.09865,0 -2,0.901354 -2,2 v 1.386719 c -0.22448,-0.05232 -0.39407,-0.228071 -0.63867,-0.19336 -0.57164,0.08112 -1.16694,0.393514 -1.72656,0.953125 0,0 -0.304,0.301356 -0.53125,0.75586 -0.22725,0.454502 -0.40194,1.141429 -0.0625,1.820312 l 2.0039,4.384766 C 118.62522,35.384094 119.83334,36 121,36 h 8 c 0.94724,0 1.74104,-0.435473 2.24805,-1.091797 C 131.75505,34.251879 132,33.395302 132,32.5 V 26 c 0,-0.652274 -0.43256,-1.147345 -0.91406,-1.474609 C 130.60444,24.198126 130.03759,24 129.48828,24 129.29977,24 129.16889,24.114424 129,24.142578 V 24 c 0,-1.098658 -0.90137,-2 -2,-2 -0.63359,0 -1.13463,0.340163 -1.50195,0.804688 C 125.1332,22.340073 124.63279,22 124,22 Z" />
  </g>
  <g
   id="layer1"
   style="display:inline"
   transform="translate(-112,-16)">
  <g
   style="display:inline;fill:none"
   id="g6"
   transform="translate(114.98833,21)">
  <path
   d="m 7.51169,3 c 0,-0.82843 -0.67158,-1.5 -1.5,-1.5 -0.82843,0 -1.5,0.67157 -1.5,1.5 V 5 C 4.01169,4.5 3,4.5 1.99998,5.5 c 0,0 -0.999994,1 -0.5,2 l 2.01172,4.4 c 0.49999,1.1 1.5,1.6 2.49999,1.6 h 8.00001 c 1.6046,0 2.5,-1.3954 2.5,-3 V 4 c 0,-0.82843 -1.1833,-1.5 -2.0117,-1.5 -0.8284,0 -0.9883,0.17157 -0.9883,1 V 2 c 0,-0.82843 -0.6716,-1.5 -1.5,-1.5 -0.8284,0 -1.5,0.67157 -1.5,1.5 V 4.5 L 10.5,2 C 10.5065,1.1716 9.84011,0.5 9.01169,0.5 c -0.82843,0 -1.5,0.67157 -1.5,1.5 z"
   fill="#000000"
   id="path1-2"
   style="fill:#000000;fill-opacity:1" />
  <path
   d="M 4.51169,6.5 V 5 m 0,0 C 4.01169,4.5 3,4.5 1.99998,5.5 c 0,0 -0.999994,1 -0.5,2 l 2.01172,4.4 c 0.49999,1.1 1.5,1.6 2.49999,1.6 h 8.00001 c 1.6046,0 2.5,-1.3954 2.5,-3 V 4 c 0,-0.82843 -1.1833,-1.5 -2.0117,-1.5 -0.8284,0 -0.9883,0.17157 -0.9883,1 M 4.51169,5 V 3 c 0,-0.82843 0.67157,-1.5 1.5,-1.5 0.82842,0 1.5,0.67157 1.5,1.5 V 2 m 0,0 c 0,-0.82843 0.67157,-1.5 1.5,-1.5 C 9.84011,0.5 10.5065,1.1716 10.5,2 l 0.0117,2.5 V 2 c 0,-0.82843 0.6716,-1.5 1.5,-1.5 0.8284,0 1.5,0.67157 1.5,1.5 V 3.5 M 7.51169,2 v 2.5 m 6.00001,-1 -3e-5,1.5"
   stroke="#ffffff"
   stroke-linecap="round"
   stroke-linejoin="round"
   id="path2-61"
   style="stroke:#ffffff;stroke-opacity:1" />
  </g>
  <path
   style="fill:#ffffff;fill-opacity:1;stroke:#ffffff;stroke-width:1px;stroke-linecap:round;stroke-linejoin:miter;stroke-opacity:1"
   d="m 122.50876,25 v 1.5"
   id="path41" />
  <path
   style="fill:#ffffff;fill-opacity:1;stroke:#ffffff;stroke-width:1px;stroke-linecap:round;stroke-linejoin:miter;stroke-opacity:1"
   d="m 125.50872,24 v 2"
   id="path42" />
  </g>
    <path
   id="hotspot"
   d="M9 5h1v1h-1z"
   display="none"
   fill="#333" />
</svg>
