<?xml version="1.0" encoding="UTF-8"?>
<svg xmlns="http://www.w3.org/2000/svg" xmlns:xlink="http://www.w3.org/1999/xlink" height="16px" viewBox="0 0 16 16" width="16px"><filter id="a" height="100%" width="100%" x="0%" y="0%"><feColorMatrix color-interpolation-filters="sRGB" values="0 0 0 0 1 0 0 0 0 1 0 0 0 0 1 0 0 0 1 0"/></filter><mask id="b"><g filter="url(#a)"><path d="m -1.6 -1.6 h 19.2 v 19.2 h -19.2 z" fill-opacity="0.5"/></g></mask><clipPath id="c"><path d="m 0 0 h 1600 v 1200 h -1600 z"/></clipPath><mask id="d"><g filter="url(#a)"><path d="m -1.6 -1.6 h 19.2 v 19.2 h -19.2 z" fill-opacity="0.7"/></g></mask><clipPath id="e"><path d="m 0 0 h 1600 v 1200 h -1600 z"/></clipPath><mask id="f"><g filter="url(#a)"><path d="m -1.6 -1.6 h 19.2 v 19.2 h -19.2 z" fill-opacity="0.35"/></g></mask><clipPath id="g"><path d="m 0 0 h 1600 v 1200 h -1600 z"/></clipPath><path d="m 7.5 0 c -4.128906 0 -7.5 3.371094 -7.5 7.5 s 3.371094 7.5 7.5 7.5 s 7.5 -3.371094 7.5 -7.5 s -3.371094 -7.5 -7.5 -7.5 z m 1.84375 2.3125 c 0.953125 0.335938 1.78125 0.925781 2.40625 1.6875 h -1.226562 c -0.304688 -0.609375 -0.699219 -1.179688 -1.179688 -1.6875 z m -3.71875 0.011719 c -0.472656 0.507812 -0.867188 1.070312 -1.171875 1.675781 h -1.203125 c 0.617188 -0.753906 1.4375 -1.335938 2.375 -1.675781 z m 1.375 0.097656 v 1.578125 h -1.398438 c 0.363282 -0.59375 0.828126 -1.128906 1.398438 -1.578125 z m 1 0.015625 c 0.558594 0.445312 1.019531 0.976562 1.378906 1.5625 h -1.378906 z m -5.402344 2.5625 h 1.441406 c -0.214843 0.644531 -0.347656 1.320312 -0.390624 2 h -1.625 c 0.0625 -0.714844 0.265624 -1.390625 0.574218 -2 z m 2.507813 0 h 1.894531 v 2 h -2.34375 c 0.046875 -0.683594 0.195312 -1.359375 0.449219 -2 z m 2.894531 0 h 1.875 c 0.253906 0.640625 0.402344 1.316406 0.449219 2 h -2.324219 z m 2.941406 0 h 1.460938 c 0.308594 0.609375 0.511718 1.285156 0.574218 2 h -1.644531 c -0.042969 -0.679688 -0.175781 -1.355469 -0.390625 -2 z m -8.917968 3 h 1.625 c 0.046874 0.679688 0.175781 1.355469 0.394531 2 h -1.445313 c -0.308594 -0.609375 -0.511718 -1.285156 -0.574218 -2 z m 2.632812 0 h 2.34375 v 2 h -1.890625 c -0.253906 -0.636719 -0.402344 -1.316406 -0.453125 -2 z m 3.34375 0 h 2.324219 c -0.050781 0.683594 -0.199219 1.363281 -0.453125 2 h -1.871094 z m 3.332031 0 h 1.644531 c -0.0625 0.714844 -0.265624 1.390625 -0.574218 2 h -1.464844 c 0.21875 -0.644531 0.347656 -1.320312 0.394531 -2 z m -8.082031 3 h 1.210938 c 0.3125 0.609375 0.710937 1.179688 1.195312 1.6875 c -0.953125 -0.335938 -1.78125 -0.925781 -2.40625 -1.6875 z m 2.363281 0 h 1.386719 v 1.550781 c -0.5625 -0.441406 -1.027344 -0.96875 -1.386719 -1.550781 z m 2.386719 0 h 1.367188 c -0.355469 0.578125 -0.8125 1.097656 -1.367188 1.535156 z m 2.519531 0 h 1.230469 c -0.632812 0.769531 -1.472656 1.363281 -2.4375 1.695312 c 0.492188 -0.507812 0.894531 -1.082031 1.207031 -1.695312 z m 0 0" fill="#222222"/><g mask="url(#b)"><g clip-path="url(#c)" transform="matrix(1 0 0 1 -720 -100)"><path d="m 550 182 c -0.351562 0.003906 -0.695312 0.101562 -1 0.28125 v 3.4375 c 0.304688 0.179688 0.648438 0.277344 1 0.28125 c 1.105469 0 2 -0.894531 2 -2 s -0.894531 -2 -2 -2 z m 0 5 c -0.339844 0 -0.679688 0.058594 -1 0.175781 v 6.824219 h 4 v -4 c 0 -1.65625 -1.34375 -3 -3 -3 z m 0 0"/></g></g><g mask="url(#d)"><g clip-path="url(#e)" transform="matrix(1 0 0 1 -720 -100)"><path d="m 569 182 v 4 c 1.105469 0 2 -0.894531 2 -2 s -0.894531 -2 -2 -2 z m 0 5 v 7 h 3 v -4 c 0 -1.65625 -1.34375 -3 -3 -3 z m 0 0"/></g></g><g mask="url(#f)"><g clip-path="url(#g)" transform="matrix(1 0 0 1 -720 -100)"><path d="m 573 182.269531 v 3.449219 c 0.613281 -0.355469 0.996094 -1.007812 1 -1.71875 c 0 -0.714844 -0.382812 -1.375 -1 -1.730469 z m 0 4.90625 v 6.824219 h 2 v -4 c 0 -1.269531 -0.800781 -2.402344 -2 -2.824219 z m 0 0"/></g></g></svg>
