<?xml version="1.0" encoding="UTF-8" standalone="no"?>
<svg
   viewBox="-4 -4 32 32"
   width="32"
   height="32"
   id="svg2"
   version="1.0"
   xml:space="preserve"
   sodipodi:docname="nw-resize.svg"
   inkscape:version="1.4.4 (dcaf3e7d9e, 2026-05-05)"
   xmlns:inkscape="http://www.inkscape.org/namespaces/inkscape"
   xmlns:sodipodi="http://sodipodi.sourceforge.net/DTD/sodipodi-0.dtd"
   xmlns="http://www.w3.org/2000/svg"
   xmlns:svg="http://www.w3.org/2000/svg"
   xmlns:rdf="http://www.w3.org/1999/02/22-rdf-syntax-ns#"
   xmlns:cc="http://creativecommons.org/ns#"
   xmlns:dc="http://purl.org/dc/elements/1.1/">
  <defs
   id="defs4">
  <filter
   style="color-interpolation-filters:sRGB"
   id="filter656"
   x="-0.13728817"
   y="-0.13726538"
   width="1.2745763"
   height="1.2745308">
  <feGaussianBlur
   stdDeviation="1 1"
   result="blur"
   id="feGaussianBlur656" />
  </filter>
  <filter
   style="color-interpolation-filters:sRGB"
   id="filter979"
   x="-0.082372903"
   y="-0.082359229"
   width="1.1647458"
   height="1.1647185">
  <feGaussianBlur
   stdDeviation="0.6 0.6"
   result="blur"
   id="feGaussianBlur979" />
  </filter>
  </defs>
  <sodipodi:namedview
   id="namedview1"
   pagecolor="#ffffff"
   bordercolor="#000000"
   borderopacity="0.25"
   inkscape:showpageshadow="2"
   inkscape:pageopacity="0.0"
   inkscape:pagecheckerboard="0"
   inkscape:deskcolor="#d1d1d1"
   inkscape:zoom="1"
   inkscape:cx="11.5"
   inkscape:cy="12"
   inkscape:window-width="5120"
   inkscape:window-height="1371"
   inkscape:window-x="0"
   inkscape:window-y="0"
   inkscape:window-maximized="1"
   inkscape:current-layer="svg2" />
  <metadata
   id="metadata7">
  <rdf:RDF>
  <cc:Work
   rdf:about="">
  <dc:format>image/svg+xml</dc:format>
  <dc:type
   rdf:resource="http://purl.org/dc/dcmitype/StillImage" />
  <dc:creator>
  <cc:Agent>
  <dc:title>Jakub Steiner</dc:title>
  </cc:Agent>
  </dc:creator>
  <cc:license
   rdf:resource="http://en.wikipedia.org/wiki/MIT_License" />
  <dc:source>http://jimmac.musichall.cz/themes.php?skin=7</dc:source>
  <dc:subject>
  <rdf:Bag>
  <rdf:li>negative</rdf:li>
  <rdf:li>inverted</rdf:li>
  <rdf:li>cursor</rdf:li>
  <rdf:li>theme</rdf:li>
  <rdf:li>X</rdf:li>
  <rdf:li>xorg</rdf:li>
  <rdf:li>xcursor</rdf:li>
  </rdf:Bag>
  </dc:subject>
  <dc:description>Inverted variant of the DMZ cursor theme.</dc:description>
  </cc:Work>
  </rdf:RDF>
  </metadata>
  <g
   id="layer5"
   style="display:inline"
   transform="translate(-240,-48)">
  <path
   id="path364"
   style="color:#000000;display:inline;opacity:0.2;fill:#000000;-inkscape-stroke:none;filter:url(#filter656)"
   d="m 244,53 v 16 c 0,0.54636 0.45364,1 1,1 h 2 c 0.54636,0 1,-0.45364 1,-1 V 57 h 11.94922 c 0.57434,-8e-5 1.0507,-0.476442 1.05078,-1.050781 V 54 c -4.3e-4,-0.545992 -0.45401,-0.99957 -1,-1 z m 5,5 v 11.20703 l 4.09961,-4.09961 5.00586,5.00586 c 0.237,0.23769 0.55888,0.37104 0.89453,0.3711 0.33565,-6e-5 0.65753,-0.13341 0.89453,-0.3711 l 1.21875,-1.21875 c 0.49093,-0.48972 0.49093,-1.29934 0,-1.78906 L 256.10742,62.09961 260.20703,58 Z" />
  <path
   id="path687"
   style="color:#000000;display:inline;opacity:0.3;fill:#000000;-inkscape-stroke:none;filter:url(#filter979)"
   d="m 244,53 v 16 c 0,0.54636 0.45364,1 1,1 h 2 c 0.54636,0 1,-0.45364 1,-1 V 57 h 11.94922 c 0.57434,-8e-5 1.0507,-0.476442 1.05078,-1.050781 V 54 c -4.3e-4,-0.545992 -0.45401,-0.99957 -1,-1 z m 5,5 v 11.20703 l 4.09961,-4.09961 5.00586,5.00586 c 0.237,0.23769 0.55888,0.37104 0.89453,0.3711 0.33565,-6e-5 0.65753,-0.13341 0.89453,-0.3711 l 1.21875,-1.21875 c 0.49093,-0.48972 0.49093,-1.29934 0,-1.78906 L 256.10742,62.09961 260.20703,58 Z" />
  </g>
  <g
   id="layer1"
   style="display:inline"
   transform="translate(-240,-48)">
  <path
   id="path541"
   style="fill:#000000;fill-opacity:1;stroke:#ffffff;stroke-width:1px;stroke-linecap:butt;stroke-linejoin:miter;stroke-opacity:1"
   d="m 259,68.984375 a 0.76417954,0.76417954 0 0 1 -0.54102,-0.224609 L 253.09961,63.400391 249.5,67 v -9.5 h 9.5 l -3.59961,3.599609 5.35938,5.359375 a 0.76417786,0.76417786 0 0 1 0,1.082032 l -1.21875,1.21875 A 0.76417954,0.76417954 0 0 1 259,68.984375 Z M 245,68.5 A 0.5,0.5 0 0 1 244.5,68 V 52.5 H 260 a 0.5003943,0.5003943 0 0 1 0.5,0.5 v 1.949219 A 0.550857,0.550857 0 0 1 259.94922,55.5 H 247.5 V 68 a 0.5,0.5 0 0 1 -0.5,0.5 z" />
  </g>
    <path
   id="hotspot"
   d="M10 10h1v1h-1z"
   display="none"
   fill="#333" />
</svg>
