<?xml version="1.0" encoding="UTF-8" standalone="no"?>
<svg
   viewBox="-4 -4 32 32"
   width="32"
   height="32"
   id="svg2"
   version="1.0"
   xml:space="preserve"
   sodipodi:docname="se-resize.svg"
   inkscape:version="1.4.4 (dcaf3e7d9e, 2026-05-05)"
   xmlns:inkscape="http://www.inkscape.org/namespaces/inkscape"
   xmlns:sodipodi="http://sodipodi.sourceforge.net/DTD/sodipodi-0.dtd"
   xmlns="http://www.w3.org/2000/svg"
   xmlns:svg="http://www.w3.org/2000/svg"
   xmlns:rdf="http://www.w3.org/1999/02/22-rdf-syntax-ns#"
   xmlns:cc="http://creativecommons.org/ns#"
   xmlns:dc="http://purl.org/dc/elements/1.1/">
  <defs
   id="defs4">
  <filter
   style="color-interpolation-filters:sRGB"
   id="filter655"
   x="-0.13728817"
   y="-0.13726542"
   width="1.2745763"
   height="1.2745308">
  <feGaussianBlur
   stdDeviation="1 1"
   result="blur"
   id="feGaussianBlur655" />
  </filter>
  <filter
   style="color-interpolation-filters:sRGB"
   id="filter978"
   x="-0.082372903"
   y="-0.082359253"
   width="1.1647458"
   height="1.1647185">
  <feGaussianBlur
   stdDeviation="0.6 0.6"
   result="blur"
   id="feGaussianBlur978" />
  </filter>
  </defs>
  <sodipodi:namedview
   id="namedview1"
   pagecolor="#ffffff"
   bordercolor="#000000"
   borderopacity="0.25"
   inkscape:showpageshadow="2"
   inkscape:pageopacity="0.0"
   inkscape:pagecheckerboard="0"
   inkscape:deskcolor="#d1d1d1"
   inkscape:zoom="1"
   inkscape:cx="11.5"
   inkscape:cy="12"
   inkscape:window-width="5120"
   inkscape:window-height="1371"
   inkscape:window-x="0"
   inkscape:window-y="0"
   inkscape:window-maximized="1"
   inkscape:current-layer="svg2" />
  <metadata
   id="metadata7">
  <rdf:RDF>
  <cc:Work
   rdf:about="">
  <dc:format>image/svg+xml</dc:format>
  <dc:type
   rdf:resource="http://purl.org/dc/dcmitype/StillImage" />
  <dc:creator>
  <cc:Agent>
  <dc:title>Jakub Steiner</dc:title>
  </cc:Agent>
  </dc:creator>
  <cc:license
   rdf:resource="http://en.wikipedia.org/wiki/MIT_License" />
  <dc:source>http://jimmac.musichall.cz/themes.php?skin=7</dc:source>
  <dc:subject>
  <rdf:Bag>
  <rdf:li>negative</rdf:li>
  <rdf:li>inverted</rdf:li>
  <rdf:li>cursor</rdf:li>
  <rdf:li>theme</rdf:li>
  <rdf:li>X</rdf:li>
  <rdf:li>xorg</rdf:li>
  <rdf:li>xcursor</rdf:li>
  </rdf:Bag>
  </dc:subject>
  <dc:description>Inverted variant of the DMZ cursor theme.</dc:description>
  </cc:Work>
  </rdf:RDF>
  </metadata>
  <g
   id="layer5"
   style="display:inline"
   transform="translate(-208,-48)">
  <path
   id="path365"
   style="color:#000000;display:inline;opacity:0.2;fill:#000000;-inkscape-stroke:none;filter:url(#filter655)"
   d="m 213,51.515625 c -0.33565,5.3e-5 -0.65753,0.133405 -0.89453,0.371094 l -1.21875,1.21875 c -0.49093,0.489725 -0.49093,1.299337 0,1.789062 l 5.00586,5.00586 L 211.79297,64 H 223 V 52.792969 l -4.09961,4.099609 -5.00586,-5.005859 C 213.65753,51.64903 213.33565,51.515678 213,51.515625 Z M 225,52 c -0.54636,0 -1,0.453639 -1,1 v 12 h -11.94922 c -0.57434,8e-5 -1.0507,0.47644 -1.05078,1.05078 V 68 c 4.3e-4,0.54599 0.45401,0.99957 1,1 h 16 V 53 c 0,-0.546361 -0.45364,-1 -1,-1 z" />
  <path
   id="path688"
   style="color:#000000;display:inline;opacity:0.3;fill:#000000;-inkscape-stroke:none;filter:url(#filter978)"
   d="m 213,51.515625 c -0.33565,5.3e-5 -0.65753,0.133405 -0.89453,0.371094 l -1.21875,1.21875 c -0.49093,0.489725 -0.49093,1.299337 0,1.789062 l 5.00586,5.00586 L 211.79297,64 H 223 V 52.792969 l -4.09961,4.099609 -5.00586,-5.005859 C 213.65753,51.64903 213.33565,51.515678 213,51.515625 Z M 225,52 c -0.54636,0 -1,0.453639 -1,1 v 12 h -11.94922 c -0.57434,8e-5 -1.0507,0.47644 -1.05078,1.05078 V 68 c 4.3e-4,0.54599 0.45401,0.99957 1,1 h 16 V 53 c 0,-0.546361 -0.45364,-1 -1,-1 z" />
  </g>
  <g
   id="layer1"
   style="display:inline"
   transform="translate(-208,-48)">
  <path
   id="path540"
   style="fill:#000000;fill-opacity:1;stroke:#ffffff;stroke-width:1px;stroke-linecap:butt;stroke-linejoin:miter;stroke-opacity:1"
   d="m 213,51.015625 a 0.76417954,0.76417954 0 0 1 0.54102,0.224609 l 5.35937,5.359375 L 222.5,53 v 9.5 H 213 l 3.59961,-3.599609 -5.35938,-5.359375 a 0.76417786,0.76417786 0 0 1 0,-1.082032 l 1.21875,-1.21875 A 0.76417954,0.76417954 0 0 1 213,51.015625 Z M 227,51.5 a 0.5,0.5 0 0 1 0.5,0.5 V 67.5 H 212 A 0.5003943,0.5003943 0 0 1 211.5,67 V 65.050781 A 0.550857,0.550857 0 0 1 212.05078,64.5 H 224.5 V 52 a 0.5,0.5 0 0 1 0.5,-0.5 z" />
  </g>
    <path
   id="hotspot"
   d="M15 15h1v1h-1z"
   display="none"
   fill="#333" />
</svg>
