<svg xmlns="http://www.w3.org/2000/svg" viewBox="0 0 16 16"><title>EOS_symbolic-icons_v0.1update-scheduled_OUTLINE</title><path d="M7.99,15.054A6.7,6.7,0,0,1,1.06,8,6.7,6.7,0,0,1,7.99.954,6.71,6.71,0,0,1,14.948,8,6.71,6.71,0,0,1,7.99,15.054Zm0-12.6A5.2,5.2,0,0,0,2.56,8a5.2,5.2,0,0,0,5.43,5.55A5.215,5.215,0,0,0,13.448,8,5.216,5.216,0,0,0,7.99,2.454Z" style="fill:#999"/><path d="M9.209,10.443,7.2,8.437a.25.25,0,0,1-.073-.177l0-4.01A.25.25,0,0,1,7.379,4h1.25a.25.25,0,0,1,.25.25l0,3.283a.25.25,0,0,0,.073.177l1.5,1.494a.25.25,0,0,1,0,.354l-.883.884A.25.25,0,0,1,9.209,10.443Z" style="fill:#999"/></svg>