<svg xmlns="http://www.w3.org/2000/svg" viewBox="0 0 16 16"><title>EOS_symbolic-icons_v0.1auto-updates_ON</title><rect x="6.001" y="6.011" width="4" height="4" rx="1" ry="1" style="fill:#999"/><path d="M5.057,5.713,3.71,4.362a5.733,5.733,0,0,1,4.238-1.9,5.173,5.173,0,0,1,5.3,5.305.248.248,0,0,0,.244.244h1a.261.261,0,0,0,.257-.265A6.684,6.684,0,0,0,7.948.961,7.3,7.3,0,0,0,2.65,3.3L1.293,1.94a.125.125,0,0,0-.213.086L1,6l3.971-.074A.125.125,0,0,0,5.057,5.713Z" style="fill:#999"/><path d="M11.03,10.074a.125.125,0,0,0-.086.213l1.347,1.35a5.733,5.733,0,0,1-4.238,1.9,5.173,5.173,0,0,1-5.3-5.305.248.248,0,0,0-.244-.245h-1a.261.261,0,0,0-.257.265,6.684,6.684,0,0,0,6.8,6.785,7.3,7.3,0,0,0,5.3-2.339l1.357,1.36a.125.125,0,0,0,.214-.086L15,10Z" style="fill:#999"/></svg>