<svg xmlns="http://www.w3.org/2000/svg" viewBox="0 0 16 16"><title>Asset 4</title><rect width="16" height="16" style="opacity:0.020000020042061806;isolation:isolate"/><path d="M12,1.529H4a2.889,2.889,0,0,0-3,2.88v5.24a2.889,2.889,0,0,0,3,2.88H5.475l2.463,2.463,2.587-2.463H12a2.889,2.889,0,0,0,3-2.88V4.409A2.889,2.889,0,0,0,12,1.529ZM7.949,3.417c1.619,0,2.429.97,2.429,1.969a2.138,2.138,0,0,1-.97,1.8l-.38.279a1.154,1.154,0,0,0-.589.97H7.249A2.069,2.069,0,0,1,7.209,8a1.721,1.721,0,0,1,.76-1.409l.51-.38a.82.82,0,0,0,.359-.7.792.792,0,0,0-.889-.77.914.914,0,0,0-.919.939c0,.069,0,.126,0,.173L5.629,5.782c-.006-.071-.009-.141-.009-.206A2.159,2.159,0,0,1,7.949,3.417Zm.8,6.477a.865.865,0,1,1-.87-.869A.868.868,0,0,1,8.748,9.894Z" style="fill:#bebebe"/></svg>