<svg xmlns="http://www.w3.org/2000/svg" viewBox="0 0 16 16"><title>EOS_symbolic-icons_v0.1auto-updates_OFF</title><path d="M11.03,10.074a.125.125,0,0,0-.086.213l1.347,1.35a5.733,5.733,0,0,1-4.238,1.9,5.6,5.6,0,0,1-2.282-.484l-1.11,1.11a7.024,7.024,0,0,0,3.392.875,7.3,7.3,0,0,0,5.3-2.339l1.357,1.36a.125.125,0,0,0,.213-.086L15,10Z" style="fill:#999"/><path d="M12.921,5.9a6.354,6.354,0,0,1,.326,1.863.248.248,0,0,0,.244.244h1a.261.261,0,0,0,.257-.265,7.543,7.543,0,0,0-.677-2.991Z" style="fill:#999"/><path d="M6.286,9.707a.994.994,0,0,0,.715.3H9a1,1,0,0,0,1-1v-2A.994.994,0,0,0,9.7,6.3l2.175-2.175,0,0L12.93,3.067l0,0,1.4-1.4a.25.25,0,0,0,0-.354L13.617.608a.25.25,0,0,0-.354,0L11.772,2.1A6.97,6.97,0,0,0,7.948.961,7.3,7.3,0,0,0,2.651,3.3L1.293,1.94a.125.125,0,0,0-.214.086L1,6l3.971-.074a.125.125,0,0,0,.086-.213L3.71,4.363a5.733,5.733,0,0,1,4.238-1.9,5.523,5.523,0,0,1,2.723.739L7.86,6.011H7a1,1,0,0,0-1,1V7.87L3.291,10.58a6,6,0,0,1-.537-2.346.248.248,0,0,0-.244-.245h-1a.261.261,0,0,0-.257.265A7.329,7.329,0,0,0,2.172,11.7L.608,13.263a.25.25,0,0,0,0,.354l.707.707a.25.25,0,0,0,.354,0l1.4-1.4,0,0,1.056-1.056,0,0Z" style="fill:#999"/></svg>