<?xml version="1.0" encoding="UTF-8" standalone="no"?>
<svg
   xmlns:dc="http://purl.org/dc/elements/1.1/"
   xmlns:cc="http://creativecommons.org/ns#"
   xmlns:rdf="http://www.w3.org/1999/02/22-rdf-syntax-ns#"
   xmlns:svg="http://www.w3.org/2000/svg"
   xmlns="http://www.w3.org/2000/svg"
   xmlns:sodipodi="http://sodipodi.sourceforge.net/DTD/sodipodi-0.dtd"
   xmlns:inkscape="http://www.inkscape.org/namespaces/inkscape"
   viewBox="0 0 39.999999 40"
   height="40"
   width="40"
   xml:space="preserve"
   id="svg2"
   version="1.1"
   sodipodi:docname="endless-button-symbolic.svg"
   inkscape:version="0.92.1 r"><sodipodi:namedview
     pagecolor="#ffffff"
     bordercolor="#666666"
     borderopacity="1"
     objecttolerance="10"
     gridtolerance="10"
     guidetolerance="10"
     inkscape:pageopacity="0"
     inkscape:pageshadow="2"
     inkscape:window-width="1920"
     inkscape:window-height="1136"
     id="namedview26"
     showgrid="false"
     inkscape:zoom="22.625"
     inkscape:cx="20"
     inkscape:cy="20"
     inkscape:window-x="0"
     inkscape:window-y="27"
     inkscape:window-maximized="1"
     inkscape:current-layer="svg2"
     fit-margin-top="0"
     fit-margin-left="0"
     fit-margin-right="0"
     fit-margin-bottom="0" /><metadata
     id="metadata8"><rdf:RDF><cc:Work
         rdf:about=""><dc:format>image/svg+xml</dc:format><dc:type
           rdf:resource="http://purl.org/dc/dcmitype/StillImage" /><dc:title></dc:title></cc:Work></rdf:RDF></metadata><defs
     id="defs6"><clipPath
       id="clipPath22"
       clipPathUnits="userSpaceOnUse"><path
         id="path20"
         d="M 0,0 H 842 V 370 H 0 Z"
         inkscape:connector-curvature="0" /></clipPath><clipPath
       id="clipPath34"
       clipPathUnits="userSpaceOnUse"><path
         id="path32"
         d="M 0,0 H 842 V 370 H 0 Z"
         inkscape:connector-curvature="0" /></clipPath><clipPath
       id="clipPath46"
       clipPathUnits="userSpaceOnUse"><path
         id="path44"
         d="M 0,0 H 842 V 370 H 0 Z"
         inkscape:connector-curvature="0" /></clipPath></defs><g
     transform="matrix(0.03851744,0,0,-0.03851744,3.7866422,27.120379)"
     id="g10"
     style=""><g
       id="g12"
       style=""><g
         transform="translate(0,-0.279053)"
         id="g14"
         style=""><g
           id="g16"
           style=""><g
             clip-path="url(#clipPath22)"
             id="g18"
             style=""><g
               id="g24"
               style=""><g
                 id="g26"
                 style=""><g
                   id="g28"
                   style=""><g
                     clip-path="url(#clipPath34)"
                     id="g30"
                     style=""><g
                       id="g36"
                       style=""><g
                         id="g38"
                         style=""><g
                           id="g40"
                           style=""><g
                             clip-path="url(#clipPath46)"
                             id="g42"
                             style=""><g
                               id="g48"
                               style=""><path
                                 id="path50"
                                 style="fill-opacity:1;fill-rule:nonzero;"
                                 d="m 737.449,259.547 c -68.324,0 -162.289,-38.004 -249.566,-82.977 l -84.555,42.922 c 69.09,38.477 129.34,77.633 162.465,99.922 l 15.125,10.176 c 6.363,4.472 7.52,13.836 2.586,20.805 l -8.586,12.156 c -4.93,6.98 -13.465,9.511 -18.984,5.629 l -3.34,-2.168 C 526.133,347.973 463.277,306.184 389.91,264.746 377.23,257.582 364.82,250.758 352.695,244.27 238.098,292.867 154.598,317.5 104.441,317.5 55.816,317.5 0,305.93 0,215.852 0,167.578 18.121,110.035 104.441,110.035 c 68.317,0 162.27,38 249.551,82.977 L 438.547,150.09 C 373.215,113.695 315.859,76.75 281.809,54 h -0.016 C 263.352,41.664 262.109,40.812 262.109,40.812 255.137,35.895 253.438,26.164 258.363,19.18 l 8.594,-12.157 c 4.926,-6.964 14.395,-8.851 21.051,-4.164 0,0 0.058,0.032 12.25,8.161 L 300.285,11 c 30.629,20.582 87.078,57.34 151.676,93.836 12.699,7.172 25.086,13.996 37.219,20.476 114.597,-48.585 198.093,-73.218 248.269,-73.218 48.617,0 104.422,11.551 104.422,101.636 0,48.282 -18.121,105.817 -104.422,105.817 M 104.441,155.984 c -48.925,0 -58.496,21.95 -58.496,59.868 0,47.281 15.332,55.691 58.496,55.691 38.411,0 105.094,-18.813 194.399,-54.711 C 215.957,176.82 149.695,155.984 104.441,155.984 M 737.449,98.031 c -38.41,0 -105.113,18.828 -194.398,54.731 82.863,39.996 149.133,60.847 194.398,60.847 48.906,0 58.469,-21.961 58.469,-59.879 0,-47.277 -15.305,-55.699 -58.469,-55.699"
                                 inkscape:connector-curvature="0" /></g></g></g></g></g></g></g></g></g></g></g></g></g></g></svg>