<?xml version="1.0" encoding="UTF-8" standalone="no"?>
<!-- Created with Inkscape (http://www.inkscape.org/) -->

<svg
   xmlns:dc="http://purl.org/dc/elements/1.1/"
   xmlns:cc="http://creativecommons.org/ns#"
   xmlns:rdf="http://www.w3.org/1999/02/22-rdf-syntax-ns#"
   xmlns:svg="http://www.w3.org/2000/svg"
   xmlns="http://www.w3.org/2000/svg"
   xmlns:sodipodi="http://sodipodi.sourceforge.net/DTD/sodipodi-0.dtd"
   xmlns:inkscape="http://www.inkscape.org/namespaces/inkscape"
   width="98"
   height="98"
   id="svg6375"
   version="1.1"
   inkscape:version="0.47 r22583"
   sodipodi:docname="add-workspace.svg">
  <defs
     id="defs6377">
    <inkscape:perspective
       sodipodi:type="inkscape:persp3d"
       inkscape:vp_x="0 : 16 : 1"
       inkscape:vp_y="0 : 1000 : 0"
       inkscape:vp_z="32 : 16 : 1"
       inkscape:persp3d-origin="16 : 10.666667 : 1"
       id="perspective6383" />
    <inkscape:perspective
       id="perspective6366"
       inkscape:persp3d-origin="0.5 : 0.33333333 : 1"
       inkscape:vp_z="1 : 0.5 : 1"
       inkscape:vp_y="0 : 1000 : 0"
       inkscape:vp_x="0 : 0.5 : 1"
       sodipodi:type="inkscape:persp3d" />
  </defs>
  <sodipodi:namedview
     id="base"
     pagecolor="#ffffff"
     bordercolor="#666666"
     borderopacity="1.0"
     inkscape:pageopacity="0.0"
     inkscape:pageshadow="2"
     inkscape:zoom="3.9590209"
     inkscape:cx="56.650687"
     inkscape:cy="20.635343"
     inkscape:current-layer="layer1"
     showgrid="true"
     inkscape:grid-bbox="true"
     inkscape:document-units="px"
     inkscape:window-width="1680"
     inkscape:window-height="997"
     inkscape:window-x="0"
     inkscape:window-y="26"
     inkscape:window-maximized="1" />
  <metadata
     id="metadata6380">
    <rdf:RDF>
      <cc:Work
         rdf:about="">
        <dc:format>image/svg+xml</dc:format>
        <dc:type
           rdf:resource="http://purl.org/dc/dcmitype/StillImage" />
        <dc:title></dc:title>
      </cc:Work>
    </rdf:RDF>
  </metadata>
  <g
     id="layer1"
     inkscape:label="Layer 1"
     inkscape:groupmode="layer"
     transform="translate(0,66)">
    <g
       id="g2824"
       transform="matrix(11.568551,0,0,11.698271,-78.828159,-304.81518)">
      <path
         style="fill:none;stroke:#666666;stroke-width:1.99999952;stroke-linecap:round;stroke-linejoin:miter;stroke-miterlimit:4;stroke-opacity:1;stroke-dasharray:none"
         d="m 11.07363,21.36834 0,6.43903"
         id="path5322" />
      <path
         style="fill:none;stroke:#666666;stroke-width:1.99999952;stroke-linecap:round;stroke-linejoin:miter;stroke-miterlimit:4;stroke-opacity:1;stroke-dasharray:none;display:inline"
         d="m 14.29314,24.58786 -6.43902,0"
         id="path5324" />
    </g>
    <path
       style="fill:#000000;fill-opacity:0.98823529"
       d="m 48.239516,97.908047 c -0.41677,-0.05102 -1.269253,-0.222408 -1.894408,-0.380859 -4.088493,-1.036262 -7.520781,-4.753234 -8.330163,-9.021094 -0.154947,-0.817026 -0.257819,-6.68112 -0.257819,-14.696556 l 0,-13.337088 -13.829177,-0.08909 C 10.802042,60.298796 10.026884,60.268266 8.6851548,59.783022 3.6288503,57.954375 0.62673331,53.828648 0.62673331,48.708554 c 0,-5.625522 4.25936019,-10.425065 9.97721469,-11.242548 0.987903,-0.141242 7.368912,-0.254994 14.460646,-0.257791 l 12.692532,-0.005 0,-13.586668 c 0,-14.6441583 0.03287,-15.0698926 1.364686,-17.6753047 2.185477,-4.2754229 6.938193,-6.75739913 11.687647,-6.10355607 3.382776,0.46569661 6.737962,2.72496967 8.414081,5.66577137 1.480816,2.5981315 1.519067,3.0522448 1.519067,18.0333334 l 0,13.666424 12.692533,0.005 c 7.091733,0.0028 13.472742,0.116549 14.460646,0.257791 6.395303,0.914337 10.804785,6.623716 9.941157,12.871766 -0.698243,5.051565 -4.792685,9.104635 -9.941157,9.840713 -0.987904,0.141242 -7.368913,0.254995 -14.460646,0.257791 l -12.692533,0.005 0,13.801945 c 0,13.031417 -0.02798,13.895893 -0.501177,15.484801 -1.526902,5.127058 -6.919246,8.802262 -12.001914,8.18002 z"
       id="path2828"
       transform="translate(0,-66)" />
  </g>
</svg>
