<?xml version="1.0" encoding="UTF-8" standalone="no"?>
<svg
   viewBox="-4 -4 32 32"
   width="32"
   height="32"
   id="svg2"
   version="1.0"
   xml:space="preserve"
   sodipodi:docname="cell.svg"
   inkscape:version="1.4.4 (dcaf3e7d9e, 2026-05-05)"
   xmlns:inkscape="http://www.inkscape.org/namespaces/inkscape"
   xmlns:sodipodi="http://sodipodi.sourceforge.net/DTD/sodipodi-0.dtd"
   xmlns="http://www.w3.org/2000/svg"
   xmlns:svg="http://www.w3.org/2000/svg"
   xmlns:rdf="http://www.w3.org/1999/02/22-rdf-syntax-ns#"
   xmlns:cc="http://creativecommons.org/ns#"
   xmlns:dc="http://purl.org/dc/elements/1.1/">
  <defs
   id="defs4">
  <filter
   style="color-interpolation-filters:sRGB"
   id="filter513"
   x="-0.12"
   y="-0.12"
   width="1.24"
   height="1.24">
  <feGaussianBlur
   stdDeviation="1 1"
   result="blur"
   id="feGaussianBlur513" />
  </filter>
  <filter
   style="color-interpolation-filters:sRGB"
   id="filter836"
   x="-0.072000003"
   y="-0.072000003"
   width="1.144"
   height="1.144">
  <feGaussianBlur
   stdDeviation="0.6 0.6"
   result="blur"
   id="feGaussianBlur836" />
  </filter>
  </defs>
  <sodipodi:namedview
   id="namedview1"
   pagecolor="#ffffff"
   bordercolor="#000000"
   borderopacity="0.25"
   inkscape:showpageshadow="2"
   inkscape:pageopacity="0.0"
   inkscape:pagecheckerboard="0"
   inkscape:deskcolor="#d1d1d1"
   inkscape:zoom="1"
   inkscape:cx="11.5"
   inkscape:cy="12"
   inkscape:window-width="5120"
   inkscape:window-height="1371"
   inkscape:window-x="0"
   inkscape:window-y="0"
   inkscape:window-maximized="1"
   inkscape:current-layer="svg2" />
  <metadata
   id="metadata7">
  <rdf:RDF>
  <cc:Work
   rdf:about="">
  <dc:format>image/svg+xml</dc:format>
  <dc:type
   rdf:resource="http://purl.org/dc/dcmitype/StillImage" />
  <dc:creator>
  <cc:Agent>
  <dc:title>Jakub Steiner</dc:title>
  </cc:Agent>
  </dc:creator>
  <cc:license
   rdf:resource="http://en.wikipedia.org/wiki/MIT_License" />
  <dc:source>http://jimmac.musichall.cz/themes.php?skin=7</dc:source>
  <dc:subject>
  <rdf:Bag>
  <rdf:li>negative</rdf:li>
  <rdf:li>inverted</rdf:li>
  <rdf:li>cursor</rdf:li>
  <rdf:li>theme</rdf:li>
  <rdf:li>X</rdf:li>
  <rdf:li>xorg</rdf:li>
  <rdf:li>xcursor</rdf:li>
  </rdf:Bag>
  </dc:subject>
  <dc:description>Inverted variant of the DMZ cursor theme.</dc:description>
  </cc:Work>
  </rdf:RDF>
  </metadata>
  <g
   id="layer5"
   style="display:inline"
   transform="translate(-112.00021,-80)">
  <path
   id="path507"
   style="color:#000000;display:inline;opacity:0.2;fill:#000000;stroke-linecap:round;-inkscape-stroke:none;filter:url(#filter513)"
   d="m 122,82 c -0.54636,0 -1,0.45364 -1,1 v 4.97461 l 0.14648,0.14648 1.85352,1.85352 2,-2 V 83 c 0,-0.54636 -0.45364,-1 -1,-1 z m -8,8 c -0.54636,0 -1,0.45364 -1,1 v 2 c 0,0.54636 0.45364,1 1,1 h 4.99023 l 0.14649,-0.14648 1.85351,-1.85352 -2,-2 z m 13.00977,0 -0.14649,0.14648 -1.85351,1.85352 2,2 H 132 c 0.54636,0 1,-0.45364 1,-1 v -2 c 0,-0.54636 -0.45364,-1 -1,-1 z M 123,94.02539 l -2,2 V 101 c 0,0.54636 0.45364,1 1,1 h 2 c 0.54636,0 1,-0.45364 1,-1 v -4.97461 l -0.14648,-0.14648 z" />
  <path
   id="path830"
   style="color:#000000;display:inline;opacity:0.3;fill:#000000;stroke-linecap:round;-inkscape-stroke:none;filter:url(#filter836)"
   d="m 122,82 c -0.54636,0 -1,0.45364 -1,1 v 4.97461 l 0.14648,0.14648 1.85352,1.85352 2,-2 V 83 c 0,-0.54636 -0.45364,-1 -1,-1 z m -8,8 c -0.54636,0 -1,0.45364 -1,1 v 2 c 0,0.54636 0.45364,1 1,1 h 4.99023 l 0.14649,-0.14648 1.85351,-1.85352 -2,-2 z m 13.00977,0 -0.14649,0.14648 -1.85351,1.85352 2,2 H 132 c 0.54636,0 1,-0.45364 1,-1 v -2 c 0,-0.54636 -0.45364,-1 -1,-1 z M 123,94.02539 l -2,2 V 101 c 0,0.54636 0.45364,1 1,1 h 2 c 0.54636,0 1,-0.45364 1,-1 v -4.97461 l -0.14648,-0.14648 z" />
  </g>
  <g
   id="layer1"
   style="display:inline"
   transform="translate(-112.00021,-80)">
  <path
   id="path280"
   style="opacity:1;fill:#000000;fill-opacity:1;stroke:#ffffff;stroke-width:1;stroke-linecap:round;stroke-linejoin:miter;stroke-dasharray:none;stroke-opacity:1"
   d="m 122,81.5 c -0.27614,0 -0.5,0.223858 -0.5,0.5 v 4.768057 l 1.5,1.5 1.5,-1.5 V 82 c 0,-0.276142 -0.22386,-0.5 -0.5,-0.5 z m 5.21705,8 -1.5,1.5 1.5,1.5 H 132 c 0.27614,0 0.5,-0.223858 0.5,-0.5 v -2 c 0,-0.276142 -0.22386,-0.5 -0.5,-0.5 z M 124.5,95.23194 123,93.731943 121.5,95.23194 V 100 c 0,0.27614 0.22386,0.5 0.5,0.5 h 2 c 0.27614,0 0.5,-0.22386 0.5,-0.5 z M 118.78295,92.5 l 1.5,-1.5 -1.5,-1.5 H 114 c -0.27614,0 -0.5,0.223858 -0.5,0.5 v 2 c 0,0.276142 0.22386,0.5 0.5,0.5 z" />
  </g>
    <path
   id="hotspot"
   d="M11 11h1v1h-1z"
   display="none"
   fill="#333" />
</svg>
