<?xml version="1.0" encoding="UTF-8" standalone="no"?>
<svg
   viewBox="-4 -4 32 32"
   width="32"
   height="32"
   id="svg2"
   version="1.0"
   xml:space="preserve"
   sodipodi:docname="all-scroll.svg"
   inkscape:version="1.4.4 (dcaf3e7d9e, 2026-05-05)"
   xmlns:inkscape="http://www.inkscape.org/namespaces/inkscape"
   xmlns:sodipodi="http://sodipodi.sourceforge.net/DTD/sodipodi-0.dtd"
   xmlns:xlink="http://www.w3.org/1999/xlink"
   xmlns="http://www.w3.org/2000/svg"
   xmlns:svg="http://www.w3.org/2000/svg"
   xmlns:rdf="http://www.w3.org/1999/02/22-rdf-syntax-ns#"
   xmlns:cc="http://creativecommons.org/ns#"
   xmlns:dc="http://purl.org/dc/elements/1.1/"><sodipodi:namedview
   id="namedview1"
   pagecolor="#ffffff"
   bordercolor="#000000"
   borderopacity="0.25"
   inkscape:showpageshadow="2"
   inkscape:pageopacity="0.0"
   inkscape:pagecheckerboard="0"
   inkscape:deskcolor="#d1d1d1"
   inkscape:zoom="12.81631"
   inkscape:cx="14.707821"
   inkscape:cy="16.619448"
   inkscape:window-width="5120"
   inkscape:window-height="1371"
   inkscape:window-x="0"
   inkscape:window-y="0"
   inkscape:window-maximized="1"
   inkscape:current-layer="svg2" /><defs
   id="defs4"><filter
     style="color-interpolation-filters:sRGB"
     id="filter652"
     x="-0.119976"
     y="-0.11995315"
     width="1.239952"
     height="1.2399063"><feGaussianBlur
       stdDeviation="1 1"
       result="blur"
       id="feGaussianBlur652" /></filter><filter
     style="color-interpolation-filters:sRGB"
     id="filter975"
     x="-0.071985606"
     y="-0.071971891"
     width="1.1439712"
     height="1.1439438"><feGaussianBlur
       stdDeviation="0.6 0.6"
       result="blur"
       id="feGaussianBlur975" /></filter></defs><metadata
   id="metadata7"><rdf:RDF><cc:Work
       rdf:about=""><dc:format>image/svg+xml</dc:format><dc:type
         rdf:resource="http://purl.org/dc/dcmitype/StillImage" /><dc:creator><cc:Agent><dc:title>Jakub Steiner</dc:title></cc:Agent></dc:creator><cc:license
         rdf:resource="http://en.wikipedia.org/wiki/MIT_License" /><dc:source>http://jimmac.musichall.cz/themes.php?skin=7</dc:source><dc:subject><rdf:Bag><rdf:li>negative</rdf:li><rdf:li>inverted</rdf:li><rdf:li>cursor</rdf:li><rdf:li>theme</rdf:li><rdf:li>X</rdf:li><rdf:li>xorg</rdf:li><rdf:li>xcursor</rdf:li></rdf:Bag></dc:subject><dc:description>Inverted variant of the DMZ cursor theme.</dc:description></cc:Work></rdf:RDF></metadata><path
   id="path368"
   style="color:#000000;display:block;opacity:0.2;fill:#000000;stroke-miterlimit:10;-inkscape-stroke:none;filter:url(#filter652)"
   d="M 10.99981,1.992188 0.996,11.996003 11,22 21,12 Z M 7,8 h 8 v 8 H 7 Z m 4,1 c -1.65093,0 -3,1.349072 -3,3 0,1.65093 1.34907,3 3,3 1.65093,0 3,-1.34907 3,-3 0,-1.650928 -1.34907,-3 -3,-3 z" /><path
   id="path691"
   style="color:#000000;display:block;opacity:0.3;fill:#000000;stroke-miterlimit:10;-inkscape-stroke:none;filter:url(#filter975)"
   d="M 10.99981,1.992188 0.996,11.996003 11,22 21,12 Z M 7,8 h 8 v 8 H 7 Z m 4,1 c -1.65093,0 -3,1.349072 -3,3 0,1.65093 1.34907,3 3,3 1.65093,0 3,-1.34907 3,-3 0,-1.650928 -1.34907,-3 -3,-3 z" /><path
   id="path272"
   style="color:#000000;display:block;overflow:visible;visibility:visible;fill:#000000;fill-opacity:1;fill-rule:nonzero;stroke:#ffffff;stroke-width:1;stroke-linecap:butt;stroke-linejoin:miter;stroke-miterlimit:10;stroke-dasharray:none;stroke-dashoffset:0;stroke-opacity:1;marker:none;enable-background:accumulate"
   d="M 11,1.699219 1.69922,11 11,20.310546 20.30078,11 Z M 15.5,6.5 v 9 h -9 v -9 z" /><use
   height="744.09003"
   width="1052.3622"
   transform="matrix(0.33333333,0,0,0.33333333,-450.66667,1024.0601)"
   id="use9339"
   xlink:href="#g7385"
   y="0"
   x="0" /><use
   height="744.09003"
   width="1052.3622"
   transform="matrix(0.33333333,0,0,0.33333333,-450.66667,1024.0601)"
   id="use9339-4"
   xlink:href="#g7385"
   y="0"
   x="0" /><circle
   style="fill:#000000;fill-opacity:1;stroke:#ffffff;stroke-width:1;stroke-linecap:round;stroke-linejoin:round;stroke-dasharray:none;stroke-opacity:1"
   id="path273"
   cx="11"
   cy="11"
   r="2.5" />  <path
   id="hotspot"
   d="M11 11h1v1h-1z"
   display="none"
   fill="#333" />
</svg>
