<?xml version="1.0" encoding="UTF-8" standalone="no"?>
<!-- Generator: Adobe Illustrator 13.0.2, SVG Export Plug-In . SVG Version: 6.00 Build 14948)  -->

<svg
   xmlns:dc="http://purl.org/dc/elements/1.1/"
   xmlns:cc="http://creativecommons.org/ns#"
   xmlns:rdf="http://www.w3.org/1999/02/22-rdf-syntax-ns#"
   xmlns:svg="http://www.w3.org/2000/svg"
   xmlns="http://www.w3.org/2000/svg"
   xmlns:sodipodi="http://sodipodi.sourceforge.net/DTD/sodipodi-0.dtd"
   xmlns:inkscape="http://www.inkscape.org/namespaces/inkscape"
   version="1.1"
   id="Foreground"
   x="0px"
   y="0px"
   width="29px"
   height="18px"
   viewBox="0 0 29 18"
   enable-background="new 0 0 29 18"
   xml:space="preserve"
   sodipodi:version="0.32"
   inkscape:version="0.46+devel"
   sodipodi:docname="magnifier.svg"
   inkscape:output_extension="org.inkscape.output.svg.inkscape"><metadata
   id="metadata16"><rdf:RDF><cc:Work
       rdf:about=""><dc:format>image/svg+xml</dc:format><dc:type
         rdf:resource="http://purl.org/dc/dcmitype/StillImage" /><dc:title></dc:title></cc:Work></rdf:RDF></metadata><defs
   id="defs14"><inkscape:perspective
     sodipodi:type="inkscape:persp3d"
     inkscape:vp_x="0 : 9 : 1"
     inkscape:vp_y="0 : 1000 : 0"
     inkscape:vp_z="29 : 9 : 1"
     inkscape:persp3d-origin="14.5 : 6 : 1"
     id="perspective18" /></defs><sodipodi:namedview
   inkscape:window-height="728"
   inkscape:window-width="1103"
   inkscape:pageshadow="2"
   inkscape:pageopacity="0"
   guidetolerance="10.0"
   gridtolerance="10.0"
   objecttolerance="10.0"
   borderopacity="1.0"
   bordercolor="#666666"
   pagecolor="#000000"
   id="base"
   showgrid="false"
   inkscape:zoom="27.260185"
   inkscape:cx="14.5"
   inkscape:cy="9"
   inkscape:window-x="142"
   inkscape:window-y="25"
   inkscape:current-layer="Foreground"><inkscape:grid
     type="xygrid"
     id="grid2391"
     empspacing="5"
     visible="true"
     enabled="true"
     snapvisiblegridlinesonly="true" /></sodipodi:namedview>

<g
   id="g5"
   style="fill:#ffffff;fill-opacity:1">
	<path
   fill="#FFFFFF"
   d="M6.246,13.98c-0.319-0.319-0.319-0.837,0-1.157l3.717-3.717c0.319-0.319,0.837-0.319,1.157,0l0.786,0.787   c0.32,0.319,0.32,0.837,0,1.157l-3.717,3.717c-0.32,0.319-0.838,0.319-1.157,0L6.246,13.98L6.246,13.98z"
   id="path7"
   style="fill:#ffffff;fill-opacity:1" />
	<path
   fill="#FFFFFF"
   d="M9.076,11.937"
   id="path9"
   style="fill:#ffffff;fill-opacity:1" />
</g>
<path
   fill-rule="evenodd"
   clip-rule="evenodd"
   fill="#FFFFFF"
   d="M11.25,7.5c0-1.243,1.007-2.25,2.25-2.25s2.25,1.007,2.25,2.25  s-1.007,2.25-2.25,2.25S11.25,8.743,11.25,7.5z M9,7.5C9,5.015,11.015,3,13.5,3S18,5.015,18,7.5S15.985,12,13.5,12S9,9.985,9,7.5z"
   id="path11"
   style="fill:#ffffff;fill-opacity:1" />
</svg>