<?xml version="1.0" encoding="UTF-8" standalone="no"?>
<!-- Created with Inkscape (http://www.inkscape.org/) -->

<svg
   width="48"
   height="48"
   viewBox="0 0 48 48"
   id="svg2"
   version="1.1"
   inkscape:version="1.3.2 (091e20ef0f, 2023-11-25)"
   sodipodi:docname="org.gnome.Shell-symbolic.Source.svg"
   xml:space="preserve"
   xmlns:inkscape="http://www.inkscape.org/namespaces/inkscape"
   xmlns:sodipodi="http://sodipodi.sourceforge.net/DTD/sodipodi-0.dtd"
   xmlns="http://www.w3.org/2000/svg"
   xmlns:svg="http://www.w3.org/2000/svg"><defs
     id="defs4"><inkscape:path-effect
       effect="fillet_chamfer"
       id="path-effect1"
       is_visible="true"
       lpeversion="1"
       nodesatellites_param="F,0,0,1,0,0.93704032,0,1 @ F,0,0,1,0,0,0,1 @ F,0,0,1,0,6.666667,0,1 @ F,0,0,1,0,6.6666667,0,1 @ F,0,0,1,0,0,0,1 @ F,0,0,1,0,0.93704032,0,1"
       radius="0"
       unit="px"
       method="auto"
       mode="F"
       chamfer_steps="1"
       flexible="false"
       use_knot_distance="true"
       apply_no_radius="true"
       apply_with_radius="true"
       only_selected="false"
       hide_knots="false" /><inkscape:path-effect
       effect="fillet_chamfer"
       id="path-effect6"
       is_visible="true"
       lpeversion="1"
       nodesatellites_param="F,0,0,1,0,0,0,1 @ F,0,0,1,0,8,0,1 @ F,0,1,1,0,8,0,1 @ F,0,1,1,0,0,0,1"
       radius="0"
       unit="px"
       method="auto"
       mode="F"
       chamfer_steps="1"
       flexible="false"
       use_knot_distance="true"
       apply_no_radius="true"
       apply_with_radius="true"
       only_selected="false"
       hide_knots="false" /><inkscape:path-effect
       effect="join_type"
       id="path-effect3"
       is_visible="true"
       lpeversion="1"
       linecap_type="round"
       line_width="4"
       linejoin_type="round"
       miter_limit="100"
       attempt_force_join="true" /><inkscape:path-effect
       effect="fillet_chamfer"
       id="path-effect59"
       is_visible="true"
       lpeversion="1"
       nodesatellites_param="F,0,0,1,0,1.6535329,0,1 @ F,0,1,1,0,1.6535329,0,1 @ F,0,1,1,0,1.6535329,0,1 | F,0,0,1,0,0,0,1 @ F,0,0,1,0,0,0,1 @ F,0,0,1,0,0,0,1 @ F,0,0,1,0,0,0,1 @ F,0,0,1,0,0,0,1 @ F,0,0,1,0,0,0,1 @ F,0,0,1,0,0,0,1 @ F,0,0,1,0,0,0,1 @ F,0,0,1,0,0,0,1 @ F,0,0,1,0,0,0,1"
       radius="0"
       unit="px"
       method="auto"
       mode="F"
       chamfer_steps="1"
       flexible="false"
       use_knot_distance="true"
       apply_no_radius="true"
       apply_with_radius="true"
       only_selected="false"
       hide_knots="false" /><inkscape:path-effect
       effect="join_type"
       id="path-effect61"
       is_visible="true"
       lpeversion="1"
       linecap_type="round"
       line_width="3.7816264"
       linejoin_type="round"
       miter_limit="100"
       attempt_force_join="true" /><inkscape:path-effect
       effect="join_type"
       id="path-effect63"
       is_visible="true"
       lpeversion="1"
       linecap_type="round"
       line_width="4"
       linejoin_type="round"
       miter_limit="100"
       attempt_force_join="true" /><inkscape:path-effect
       effect="join_type"
       id="path-effect65"
       is_visible="true"
       lpeversion="1"
       linecap_type="round"
       line_width="4"
       linejoin_type="round"
       miter_limit="100"
       attempt_force_join="true" /><inkscape:path-effect
       effect="join_type"
       id="path-effect67"
       is_visible="true"
       lpeversion="1"
       linecap_type="round"
       line_width="4"
       linejoin_type="round"
       miter_limit="100"
       attempt_force_join="true" /><inkscape:path-effect
       effect="join_type"
       id="path-effect69"
       is_visible="true"
       lpeversion="1"
       linecap_type="round"
       line_width="4"
       linejoin_type="round"
       miter_limit="100"
       attempt_force_join="true" /><inkscape:path-effect
       effect="join_type"
       id="path-effect83"
       is_visible="true"
       lpeversion="1"
       linecap_type="round"
       line_width="4.0423292"
       linejoin_type="round"
       miter_limit="100"
       attempt_force_join="true" /><inkscape:path-effect
       effect="join_type"
       id="path-effect85"
       is_visible="true"
       lpeversion="1"
       linecap_type="round"
       line_width="4"
       linejoin_type="round"
       miter_limit="100"
       attempt_force_join="true" /><inkscape:path-effect
       effect="join_type"
       id="path-effect69-3"
       is_visible="true"
       lpeversion="1"
       linecap_type="round"
       line_width="1.9999956"
       linejoin_type="round"
       miter_limit="100"
       attempt_force_join="true" /><inkscape:path-effect
       effect="fillet_chamfer"
       id="path-effect1-6"
       is_visible="true"
       lpeversion="1"
       nodesatellites_param="F,0,0,1,0,0.93704032,0,1 @ F,0,0,1,0,0,0,1 @ F,0,0,1,0,6.6666683,0,1 @ F,0,0,1,0,6.6666683,0,1 @ F,0,0,1,0,0,0,1 @ F,0,0,1,0,0.93704032,0,1"
       radius="0"
       unit="px"
       method="auto"
       mode="F"
       chamfer_steps="1"
       flexible="false"
       use_knot_distance="true"
       apply_no_radius="true"
       apply_with_radius="true"
       only_selected="false"
       hide_knots="false" /></defs><sodipodi:namedview
     id="base"
     pagecolor="#ffffff"
     bordercolor="#666666"
     borderopacity="1.0"
     inkscape:pageopacity="1"
     inkscape:pageshadow="2"
     inkscape:zoom="1"
     inkscape:cx="72.5"
     inkscape:cy="126.5"
     inkscape:document-units="px"
     inkscape:current-layer="layer1"
     showgrid="false"
     units="px"
     inkscape:window-width="2560"
     inkscape:window-height="1531"
     inkscape:window-x="0"
     inkscape:window-y="0"
     inkscape:window-maximized="1"
     inkscape:snap-bbox="true"
     inkscape:bbox-paths="true"
     inkscape:snap-bbox-midpoints="true"
     inkscape:snap-intersection-paths="false"
     inkscape:object-paths="true"
     inkscape:object-nodes="true"
     inkscape:snap-smooth-nodes="true"
     inkscape:snap-midpoints="true"
     inkscape:bbox-nodes="false"
     inkscape:snap-global="true"
     inkscape:pagecheckerboard="false"
     showborder="false"
     inkscape:snap-nodes="true"
     inkscape:snap-others="false"
     inkscape:showpageshadow="0"
     inkscape:deskcolor="#d1d1d1"><inkscape:grid
       type="xygrid"
       id="grid4514"
       empspacing="4"
       color="#5e57ff"
       opacity="0.1254902"
       empcolor="#5e57ff"
       empopacity="0.25098039"
       originx="0"
       originy="0"
       spacingy="1"
       spacingx="1"
       units="px"
       visible="false" /></sodipodi:namedview><g
     inkscape:label="status"
     inkscape:groupmode="layer"
     id="layer1"
     transform="translate(0,-161.53331)"><text
       xml:space="preserve"
       style="font-style:normal;font-weight:normal;font-size:16px;line-height:1.25;font-family:sans-serif;fill:#241f31;fill-opacity:1;stroke:none"
       x="-4"
       y="145.53331"
       id="text12175"><tspan
         sodipodi:role="line"
         id="tspan12173"
         x="-4"
         y="145.53331"
         style="font-size:16px;fill:#241f31;fill-opacity:1">status</tspan></text><g
       id="g16183"
       transform="matrix(0.75,0,0,0.75,-216,-193.61668)"
       inkscape:label="notifications alerts calendar events"
       style="stroke-width:0.666667"><title
         id="title20651">no-notifications</title><rect
         transform="scale(-1,1)"
         y="473.53333"
         x="-352"
         height="64"
         width="64"
         id="rect15794"
         style="fill:none;stroke-width:0.666667" /><path
         id="path29"
         style="color:#000000;fill:#241f31;fill-opacity:0.8;stroke-width:1.33333;stroke-linejoin:round;-inkscape-stroke:none"
         d="m 320.219,478.86616 c -2.216,0 -4,1.78401 -4,4 v 1.79167 c -6.99377,1.70873 -12.21875,8.03827 -12.21875,15.54167 v 13.73177 l -3.57812,4.47135 c -1.75649,2.19556 -0.0279,5.7969 2.78385,5.79688 h 33.58594 c 2.8117,2e-5 4.54295,-3.60132 2.78645,-5.79688 l -3.57812,-4.47135 V 500.1995 c 0,-7.34514 -5.00953,-13.5649 -11.78125,-15.42709 v -1.90625 c 0,-2.21599 -1.784,-4 -4,-4 z m -5.33333,48 a 5.333333,5.333333 0 0 0 2.66666,4.6198 5.333333,5.333333 0 0 0 5.33334,0 5.333333,5.333333 0 0 0 2.66666,-4.6198 H 320.219 Z" /></g><g
       id="g21075"
       transform="translate(0,-340)"
       inkscape:label="notifications alerts calendar events"><title
         id="title36429">message-indicator</title><rect
         transform="scale(-1,1)"
         y="601.53333"
         x="-16"
         height="16"
         width="16"
         id="rect20973"
         style="fill:none" /><path
         d="M 12,609.53332 A 3.9999999,3.9999999 0 0 1 8.0000002,613.53331 3.9999999,3.9999999 0 0 1 4.0000003,609.53332 3.9999999,3.9999999 0 0 1 8.0000002,605.53334 3.9999999,3.9999999 0 0 1 12,609.53332 Z"
         id="path4485"
         style="fill:#241f31;fill-opacity:1;stroke-width:3.77953" /></g><g
       id="g36685"
       inkscape:label="screen shield privacy active"
       transform="translate(-40,-402)"><title
         id="title41631">screen-privacy</title><rect
         transform="scale(-1,1)"
         y="663.53333"
         x="-76"
         height="16"
         width="16"
         id="rect36558"
         style="fill:none" /><path
         id="path113"
         style="fill:#241f31;fill-opacity:1"
         d="m 64,664.53331 c -1.660156,0 -3,1.33984 -3,3 v 6 c 0,1.66016 1.339844,3 3,3 h 8 c 1.660156,0 3,-1.33984 3,-3 v -6 c 0,-1.66016 -1.339844,-3 -3,-3 z m 0,2 h 0.261719 L 63,667.79503 v -0.26172 c 0,-0.55469 0.445312,-1 1,-1 z m 2.738281,0 H 67.4375 L 63,670.97081 v -0.69922 z m 2.824219,0 h 1.230469 l -7.585938,7.58203 C 63.085938,673.95128 63,673.75597 63,673.53331 v -0.4375 z m 2.609375,0.0352 c 0.316406,0.0547 0.578125,0.24609 0.714844,0.52343 l -7.441407,7.44141 H 64.207031 Z M 73,667.68956 v 5.84375 c 0,0.55469 -0.445312,1 -1,1 h -5.84375 z m -5,9.84375 c -5,0 -5,1 -5,1 0,1 1,1 1,1 h 8 c 1,0 1,-1 1,-1 0,0 0,-1 -5,-1 z" /></g><g
       id="g41416"
       inkscape:label="status"
       transform="translate(-40,-402)"><title
         id="title41633">screen-privacy-disabled</title><rect
         transform="scale(-1,1)"
         y="663.53333"
         x="-96"
         height="16"
         width="16"
         id="rect36687"
         style="fill:none" /><path
         d="m 81.53125,664.00213 -1.0625,1.0625 14,14 1.0625,-1.0625 -1.945312,-1.94531 C 94.433594,675.52947 95,674.6076 95,673.53338 v -6 c 0,-1.66016 -1.339844,-3 -3,-3 h -8 c -0.554688,0 -1.070312,0.16016 -1.515625,0.42188 z m 2.53125,2.53125 h 0.199219 l -0.09766,0.0977 z m 2.675781,0 H 87.4375 l -1.6875,1.6875 -0.351562,-0.35156 z m 2.824219,0 h 1.230469 l -3.367188,3.36328 -0.613281,-0.61328 z m 2.609375,0.0352 c 0.316406,0.0547 0.578125,0.24609 0.714844,0.52343 l -4.132813,4.13282 -0.617187,-0.61719 z M 81,667.59197 v 5.94141 c 0,1.66016 1.339844,3 3,3 h 5.941406 l -2,-2 H 86.15625 l 0.894531,-0.89453 -0.355469,-0.35547 -1.25,1.25 h -1.238281 l 1.867188,-1.86719 -0.707031,-0.70703 -2.160157,2.15625 C 83.085938,673.95135 83,673.75604 83,673.53338 v -0.4375 l 1.75,-1.75 -1.0625,-1.0625 -0.6875,0.6875 v -0.69922 l 0.339844,-0.33984 z m 12,0.0937 v 5.84766 c 0,0.53516 -0.417969,0.96094 -0.949219,0.98828 l -2.941406,-2.9414 z m -5,9.84766 c -5,0 -5,1 -5,1 0,1 1,1 1,1 h 8 c 0.328125,0 0.539062,-0.10937 0.6875,-0.25391 l -1.542969,-1.54687 C 90.414062,677.61927 89.425781,677.53333 88,677.53333 Z m 0,0"
         fill="#2e3436"
         fill-rule="evenodd"
         id="path113-6"
         style="fill:#241f31;fill-opacity:1" /></g><g
       id="g8970"
       transform="translate(-24,-214.46669)"
       inkscape:label="on-screen keyboard keys"><title
         id="title14941">keyboard-shift</title><rect
         width="23.999996"
         height="23.999996"
         x="23.99999"
         y="443.99997"
         id="rect8636"
         style="fill:none" /><path
         d="m 36,448 -7.5,8 H 33 v 7 h 6 v -7 h 4.5 z"
         id="path1150"
         style="fill:#241f31;fill-opacity:1;stroke-width:0.666667" /></g><g
       id="g8978"
       transform="translate(8,-214.46669)"
       inkscape:label="on-screen keyboard keys"><title
         id="title14939">keyboard-caps-lock</title><rect
         width="23.999996"
         height="23.999996"
         x="23.99999"
         y="443.99997"
         id="rect8972"
         style="fill:none" /><path
         id="path8974"
         d="m 36,446 -7.5,8 H 33 v 5 h 6 v -5 h 4.5 z m -3,16 v 3 h 6 v -3 z"
         style="fill:#241f31;fill-opacity:1" /></g><g
       id="g13560"
       inkscape:label="on-screen keyboard keys"
       transform="translate(-40,-234.46669)"><title
         id="title14945">keyboard-layout</title><rect
         width="23.999996"
         height="23.999996"
         x="103.99999"
         y="463.99997"
         id="rect13441"
         style="fill:none" /><path
         d="m 109,467 v 19 h 2 v -8 h 4.383 l 0.722,1.447 c 0.16942,0.33905 0.51597,0.55318 0.895,0.553 h 7 c 0.55228,0 1,-0.44772 1,-1 v -9 c 0,-0.55228 -0.44772,-1 -1,-1 h -5.383 l -0.722,-1.447 C 117.72558,467.21395 117.37903,466.99982 117,467 h -7 z"
         id="path1085"
         style="fill:#241f31;fill-opacity:1" /></g><g
       id="g13796"
       inkscape:label="on-screen keyboard keys"
       transform="translate(-40,-234.46669)"><title
         id="title14943">keyboard-enter</title><rect
         width="23.999996"
         height="23.999996"
         x="-487.99997"
         y="-191.99998"
         id="rect13680"
         transform="matrix(0,-1,-1,0,0,0)"
         style="fill:none" /><path
         id="path955"
         style="fill:#241f31;fill-opacity:1"
         d="m 187,470 v 6.00391 c 0.006,0.996 -1,0.99609 -1,0.99609 h -11.58594 l 1.29297,-1.29297 a 1,1 0 0 0 0,-1.41406 A 1,1 0 0 0 175,474 a 1,1 0 0 0 -0.70703,0.29297 l -3,3 a 1.0001,1.0001 0 0 0 0,1.41406 l 3,3 a 1,1 0 0 0 1.41406,0 1,1 0 0 0 0,-1.41406 L 174.41602,479 H 186 c 3.006,0 3,-3 3,-3 v -6 z" /></g><g
       id="g14"
       transform="translate(-64,-20.000063)"
       inkscape:label="on-screen keyboard keys"><title
         id="title14">keyboard-hide</title><rect
         width="23.999996"
         height="23.999996"
         x="-273.53329"
         y="-183.99998"
         id="rect14"
         transform="matrix(0,-1,-1,0,0,0)"
         style="fill:none" /><path
         d="m 162.49704,251.53995 c -0.554,0 -1,0.446 -1,1 v 11 c 0,0.554 0.446,1 1,1 h 19.0059 c 0.554,0 1,-0.446 1,-1 v -11 c 0,-0.554 -0.446,-1 -1,-1 z m 1.3653,2 h 1.6562 v 2 h -2 v -1.6074 c 0,-0.218 0.1538,-0.3926 0.3438,-0.3926 z m 2.6562,0 h 2 v 2 h -2 z m 3,0 h 2 v 2 h -2 z m 3,0 h 1.6563 c 0.19,0 0.3437,0.1746 0.3437,0.3926 v 1.6074 h -2 z m 2.9844,0 h 2 v 2 h -2 z m 3,0 h 2 v 2 h -2 z m -13.9844,3 h 2 v 2 h -2 z m 3,0 h 2 v 2 h -2 z m 3,0 h 2 v 2 h -2 z m 2.9844,0 h 2 v 2 h -2 z m 3,0 h 2 v 2 h -2 z m -9.6621,4 h 10.3125 c 0.19,0 0.3437,0.1746 0.3437,0.3926 v 1.2148 c 0,0.218 -0.1537,0.3926 -0.3437,0.3926 h -10.3125 c -0.19,0 -0.3438,-0.1746 -0.3438,-0.3926 v -1.2148 c 0,-0.218 0.1538,-0.3926 0.3438,-0.3926 z"
         fill="#241f31"
         id="path1" /><path
         d="m 176.99999,267.52665 -4.99512,4 -5.00488,-4 z"
         fill="#241f31"
         id="path2-6" /></g></g><g
     inkscape:groupmode="layer"
     id="layer2"
     inkscape:label="actions"><text
       xml:space="preserve"
       style="font-style:normal;font-weight:normal;font-size:16px;line-height:1.25;font-family:sans-serif;fill:#241f31;fill-opacity:1;stroke:none"
       x="-4"
       y="164"
       id="text12715"><tspan
         sodipodi:role="line"
         id="tspan12713"
         x="-4"
         y="164"
         style="font-size:16px;fill:#241f31;fill-opacity:1">actions</tspan></text><g
       id="g13439"
       transform="matrix(-1,0,0,1,111.99998,-116)"
       inkscape:label="overview next right forward"><title
         id="title15446">carousel-arrow-next</title><path
         style="color:#000000;fill:#000000;stroke-linecap:round;stroke-linejoin:round;-inkscape-stroke:none"
         d="m 50,504 a 1,1 0 0 0 -0.707031,0.29297 l -7,7 a 1.0001,1.0001 0 0 0 0,1.41406 l 7,7 a 1,1 0 0 0 1.414062,0 1,1 0 0 0 0,-1.41406 L 44.414062,512 l 6.292969,-6.29297 a 1,1 0 0 0 0,-1.41406 A 1,1 0 0 0 50,504 Z"
         id="path6-4" /><rect
         width="15.999988"
         height="15.999966"
         x="39.999992"
         y="504"
         id="rect13435"
         style="fill:none;stroke-width:0.999999" /></g><g
       id="g29998"
       inkscape:label="mouse pointer dwell click"
       transform="translate(28,-216)"><title
         id="title39373">pointer-secondary-click</title><path
         d="m 16,640 v 19.77148 l -4.24414,-4.14258 c -0.612408,1.21538 -1.173049,2.46023 -1.819709,3.6561 -1.141947,1.47628 -3.975266,0.38901 -3.846009,-1.47361 0.09413,-0.82252 0.594755,-1.52142 0.899969,-2.2776 l 0.896608,-1.92051 H 2.617188 Z m -1.5,3.72656 -8.359375,8.38672 h 4.101563 c -0.885072,1.9032 -1.781799,3.80152 -2.659622,5.70774 -0.0349,0.56609 1.149057,0.98883 1.282093,0.29797 l 2.455699,-5.01348 3.179687,3.10351 z"
         id="path5851"
         style="fill:#241f31;fill-opacity:1" /><rect
         width="20"
         height="20"
         x="-7.6293945e-06"
         y="640"
         id="rect1156"
         style="color:#bebebe;display:inline;overflow:visible;visibility:visible;fill:none;stroke:none;stroke-width:1.781;marker:none;enable-background:new" /></g><g
       id="g29992"
       inkscape:label="mouse pointer dwell click"
       transform="translate(-28,-216)"><title
         id="title39371">pointer-primary-click</title><rect
         width="20"
         height="20"
         x="27.999992"
         y="640"
         id="rect1244"
         style="color:#bebebe;display:inline;overflow:visible;visibility:visible;fill:none;stroke:none;stroke-width:1.781;marker:none;enable-background:new" /><path
         d="m 32,640 v 19.64648 l 4.24414,-4.14257 c 0.612408,1.21537 1.173049,2.46022 1.819709,3.65609 1.141947,1.47628 3.975266,0.38901 3.846009,-1.47361 -0.09413,-0.82252 -0.594755,-1.52142 -0.899969,-2.2776 l -0.896608,-1.92051 h 5.269531 z m 1.5,3.72656 8.359375,8.26172 h -4.101563 c 0.885072,1.9032 1.781799,3.80152 2.659622,5.70774 0.0349,0.56609 -1.149057,0.98883 -1.282093,0.29798 l -2.455699,-5.01349 -3.179687,3.10352 z"
         id="path5565"
         style="fill:#241f31;fill-opacity:1" /></g><g
       id="g14643"
       inkscape:label="mouse pointer dwell click drag"
       transform="translate(0,-216)"><title
         id="title39369">pointer-drag</title><rect
         width="20"
         height="20"
         x="55.999992"
         y="640"
         id="rect9430"
         style="color:#bebebe;display:inline;overflow:visible;visibility:visible;fill:none;stroke:none;stroke-width:1.781;marker:none;enable-background:new" /><path
         d="m 66.92607,642.31969 c -0.836524,0.0747 -1.818151,-0.13657 -2.447266,0.57617 -0.179249,0.5031 -0.39107,0.72969 -0.945312,0.61718 -0.793816,-0.0511 -1.701912,0.0538 -2.1875,0.77344 -0.554908,0.83096 -0.313681,1.85623 -0.367187,2.79297 v 1.50195 c -0.509721,-0.31797 -1.13192,-0.13205 -1.699219,-0.18164 -0.442833,-0.0207 -0.881113,0.0252 -1.31836,0.0918 0.05693,2.68593 0.07373,5.37334 0.121094,8.05859 0.09369,1.3023 1.232044,2.40482 2.544922,2.42383 0.632949,0.0151 1.48233,0.007 2.224609,0.0117 3.221817,-0.0121 6.446114,0.0498 9.666016,-0.0566 1.162213,-0.12022 2.213268,-1.18845 2.070313,-2.39648 v -9.48047 c -0.706809,-0.94069 -1.815276,-1.78087 -3.058594,-1.57032 -0.299549,-0.45356 -0.486118,-1.47311 -1.226563,-1.79882 -0.354855,-0.29104 -0.839588,-0.10977 -1.259765,-0.16211 -0.297442,-0.0727 -0.8559,0.19254 -0.869141,-0.25196 -0.157351,-0.52152 -0.715235,-0.90856 -1.248047,-0.94921 z m -0.105469,1.5039 c 0.164522,0.27146 0.182773,0.75372 0.21875,1.125 0.0066,0.007 0.0198,0.006 0.02734,0.0117 -0.0091,-1.7e-4 -0.01824,1.7e-4 -0.02734,0 l 0.494141,5.90039 0.664062,-5.8418 1.345704,0.004 c 0.536079,0.38955 0.412986,1.14048 0.554687,1.72266 -0.01113,0.0675 0.0064,0.096 0.01563,0.13672 -6.5e-4,-10e-6 -0.0013,0 -0.002,0 l 0.01172,0.0859 0.482422,3.86524 0.664062,-3.91993 c 0.574035,-0.0371 1.157689,0.0385 1.558594,0.50196 0.40964,0.21686 0.215641,0.68897 0.259766,1.05859 v 8.3418 c -0.337059,0.96368 -1.599977,0.54827 -2.375,0.66016 -3.370517,0.0131 -6.742137,0.0338 -10.111329,-0.0137 -0.975625,-0.0283 -1.141898,-1.06997 -1.040974,-1.84179 -0.01164,-1.90706 -0.04474,-3.81393 -0.07813,-5.72071 0.326364,0.006 0.675958,-0.0127 0.988281,0.01 0.493884,0.91523 0.484615,2.00119 0.507813,3.01563 0.492636,-0.007 1.043381,0.0398 1.5,0 0.0091,-2.51961 -0.01844,-5.04003 0.01367,-7.5586 0.104898,-0.5199 0.730745,-0.30916 1.111329,-0.35352 h 0.675781 l 0.488281,5.84766 0.669922,-5.87695 h -0.0039 c 0.03095,-0.38284 -0.150626,-0.89584 0.24805,-1.11914 z"
         id="path5630"
         style="fill:#241f31;fill-opacity:1" /></g><g
       id="g30454"
       inkscape:label="mouse pointer dwell click double"
       transform="translate(0,-216)"><title
         id="title39367">pointer-double-click</title><rect
         width="20"
         height="20"
         x="83.999992"
         y="640"
         id="rect14651"
         style="color:#bebebe;display:inline;overflow:visible;visibility:visible;fill:none;stroke:none;stroke-width:1.781;marker:none;enable-background:new" /><path
         d="m 85,640 v 19.70898 l 4.24414,-4.14453 c 0.5882,1.18866 1.158389,2.38656 1.758464,3.56913 1.108631,1.64026 4.157538,0.46513 3.89799,-1.49586 0.01057,-0.47022 -0.405577,-0.90844 -0.434651,-1.31364 l 0.778203,-0.75963 c 0.5882,1.18866 1.158389,2.38656 1.758464,3.56913 1.108631,1.64026 4.15754,0.46513 3.89799,-1.49586 -0.19232,-0.9043 -0.71785,-1.69802 -1.068629,-2.54897 l -0.716725,-1.53797 h 4.830074 L 91,640 v 6.24414 z m 1.5,3.72656 6,6.24414 v -6.24414 l 7.92188,8.32422 h -3.662115 c 0.883468,1.90344 1.781983,3.80027 2.656081,5.70782 0.0065,0.62278 -1.227555,0.98057 -1.325116,0.20712 l -2.412991,-4.92076 -3.060547,2.98633 c 0.263642,0.60805 0.596803,1.19246 0.814693,1.81614 -0.182662,0.60103 -1.26833,0.8373 -1.365856,0.0679 l -2.388284,-4.87037 -3.177734,3.10156 z"
         id="path5565-5"
         style="fill:#241f31;fill-opacity:1" /></g><g
       id="g1429"
       transform="translate(-132,-180)"
       inkscape:label="screenshooter capture area "><title
         id="title1423">screenshot-ui-area</title><rect
         width="31.999998"
         height="31.999998"
         x="-491.99994"
         y="-163.99998"
         id="rect1425"
         transform="matrix(0,-1,-1,0,0,0)"
         style="fill:none;stroke-width:1" /><path
         d="m 135.5,462 a 3.515,3.515 0 0 0 -3.5,3.5 c 0,1.385 0.822,2.593 2,3.158 V 472 h 2 v -3.037 A 3.521,3.521 0 0 0 138.963,466 H 141 v -2 h -2.342 a 3.516,3.516 0 0 0 -3.158,-2 z m 25,0 a 3.516,3.516 0 0 0 -3.158,2 H 155 v 2 h 2.037 A 3.521,3.521 0 0 0 160,468.963 V 472 h 2 v -3.342 a 3.516,3.516 0 0 0 2,-3.158 c 0,-1.921 -1.579,-3.5 -3.5,-3.5 z m -25,2 c 0.84,0 1.5,0.66 1.5,1.5 0,0.84 -0.66,1.5 -1.5,1.5 -0.84,0 -1.5,-0.66 -1.5,-1.5 0,-0.84 0.66,-1.5 1.5,-1.5 z m 7.5,0 v 2 h 4 v -2 z m 6,0 v 2 h 4 v -2 z m 11.5,0 c 0.84,0 1.5,0.66 1.5,1.5 0,0.84 -0.66,1.5 -1.5,1.5 -0.84,0 -1.5,-0.66 -1.5,-1.5 0,-0.84 0.66,-1.5 1.5,-1.5 z M 134,474 v 4 h 2 v -4 z m 26,0 v 4 h 2 v -4 z m -26,6 v 3.342 a 3.516,3.516 0 0 0 -2,3.158 c 0,1.921 1.579,3.5 3.5,3.5 a 3.516,3.516 0 0 0 3.158,-2 H 141 v -2 h -2.037 A 3.521,3.521 0 0 0 136,483.037 V 480 Z m 26,0 v 3.037 A 3.521,3.521 0 0 0 157.037,486 H 155 v 2 h 2.342 a 3.516,3.516 0 0 0 3.158,2 c 1.921,0 3.5,-1.579 3.5,-3.5 a 3.516,3.516 0 0 0 -2,-3.158 V 480 Z m -24.5,5 c 0.84,0 1.5,0.66 1.5,1.5 0,0.84 -0.66,1.5 -1.5,1.5 -0.84,0 -1.5,-0.66 -1.5,-1.5 0,-0.84 0.66,-1.5 1.5,-1.5 z m 25,0 c 0.84,0 1.5,0.66 1.5,1.5 0,0.84 -0.66,1.5 -1.5,1.5 -0.84,0 -1.5,-0.66 -1.5,-1.5 0,-0.84 0.66,-1.5 1.5,-1.5 z m -17.5,1 v 2 h 4 v -2 z m 6,0 v 2 h 4 v -2 z"
         id="path2-3"
         style="fill:#241f31;fill-opacity:1" /></g><g
       id="g22"
       inkscape:label="screenshooter capture display screen "
       transform="translate(0,-32)"><title
         id="title22">screenshot-ui-display</title><g
         id="g4349"
         transform="translate(-92,-148)"
         inkscape:label="screenshooter capture display screen "><title
           id="title4343">screenshot-ui-display</title><rect
           width="31.999998"
           height="31.999998"
           x="-491.99994"
           y="-163.99998"
           id="rect4345"
           transform="matrix(0,-1,-1,0,0,0)"
           style="fill:none;stroke-width:1" /></g><path
         id="path22-6"
         style="color:#000000;display:inline;fill:#241f31;fill-opacity:1;stroke-width:1.01058;stroke-linecap:round;stroke-linejoin:round;-inkscape-stroke:none;paint-order:stroke markers fill"
         d="m 45,315 c -2.263717,0 -4.095702,1.84635 -4.095702,4.07617 v 13.82812 c 0,2.22982 1.831985,4.07422 4.095702,4.07422 h 5.892581 v 2.46875 c 0,1.40837 1.134592,2.54297 2.542968,2.54297 h 5.414062 c 1.408371,0 2.542968,-1.1346 2.542968,-2.54297 v -2.46875 h 5.392579 c 2.263716,0 4.095702,-1.8444 4.095702,-4.07422 V 319.07617 C 70.88086,316.84635 69.048874,315 66.785158,315 Z m 0,1.97851 h 21.785158 c 1.155876,0 2.076169,0.90787 2.076169,2.09766 v 13.82812 c 0,1.18978 -0.920293,2.09571 -2.076169,2.09571 H 45 c -1.155875,0 -2.076171,-0.90593 -2.076171,-2.09571 v -13.82812 c 0,-1.18979 0.920296,-2.09766 2.076171,-2.09766 z m 7.892578,20 h 6.5 v 2.46875 c 0,0.30143 -0.241543,0.54297 -0.542967,0.54297 h -5.414062 c -0.301429,0 -0.542971,-0.24154 -0.542971,-0.54297 z"
         sodipodi:nodetypes="sssscsssscssssssssssssssccssssc" /></g><g
       id="g47"
       inkscape:label="display mirror"
       transform="matrix(0.5,0,0,0.5,-40,-27.2598)"
       style="display:inline;stroke-width:2"><title
         id="title47">shell-display-mirror</title><rect
         style="display:inline;fill:none;stroke:none;stroke-width:12;-inkscape-stroke:none;stop-color:#000000"
         id="rect47"
         width="64"
         height="64"
         x="80"
         y="694.51965" /><path
         style="color:#000000;fill:#241f31;stroke-linecap:round;stroke-linejoin:round;-inkscape-stroke:none"
         d="m 172.96094,706.89258 c -4.65133,0 -8.46193,3.81209 -8.46289,8.46289 l -0.004,23.38476 c -9.7e-4,4.65185 3.80961,8.46289 8.46094,8.46289 h 4.23633 a 2.11549,2.11549 0 0 0 2.11523,-2.11523 2.11549,2.11549 0 0 0 -2.11523,-2.11523 h -4.23633 c -2.38055,0 -4.23096,-1.85047 -4.23047,-4.23047 l 0.006,-23.38672 c 4.9e-4,-2.38108 1.84992,-4.23242 4.23047,-4.23242 h 38.07812 c 2.38055,0 4.23292,1.8524 4.23242,4.23242 l -0.006,23.38476 c -4.9e-4,2.38107 -1.84991,4.23243 -4.23046,4.23243 h -4.22657 a 2.11549,2.11549 0 0 0 -2.11523,2.11523 2.11549,2.11549 0 0 0 2.11523,2.11523 h 4.22657 c 4.65132,0 8.45997,-3.81014 8.46093,-8.46093 l 0.006,-23.38672 c 9.7e-4,-4.65185 -3.81156,-8.46289 -8.46289,-8.46289 z M 192,736.63867 c -1.02704,4.5e-4 -2.05429,0.45695 -2.67969,1.36914 l -7.44922,10.86524 c -1.29025,1.88193 0.18114,4.67578 2.46289,4.67578 h 15.34961 c 2.28197,0 3.75296,-2.79481 2.46094,-4.67578 l -7.46484,-10.86719 c -0.6262,-0.91164 -1.65265,-1.36764 -2.67969,-1.36719 z m 0.002,4.93945 5.31641,7.74024 h -10.62305 z"
         id="path47"
         transform="matrix(0.9454066,0,0,0.9454066,-69.518062,36.109126)" /></g><g
       id="g54"
       inkscape:label="display extend all join displays"
       transform="matrix(0.5,0,0,0.5,0,-27.2598)"
       style="display:inline;fill:#241f31;fill-opacity:1;stroke-width:2"><title
         id="title48">shell-display-extend-all</title><rect
         style="display:inline;fill:none;fill-opacity:1;stroke:none;stroke-width:12;-inkscape-stroke:none;stop-color:#000000"
         id="rect48"
         width="64"
         height="64"
         x="80"
         y="694.51965" /><path
         id="path48"
         style="color:#000000;stroke-linecap:round;stroke-linejoin:round;-inkscape-stroke:none;paint-order:stroke markers fill"
         d="m 88,736.5196 c -3.289397,0 -6,2.7106 -6,6 v 11.17187 l -1.414062,1.41407 A 2.0002,2.0002 0 0 0 82,758.5196 h 28 a 2.0002,2.0002 0 0 0 1.41406,-3.41406 L 110,753.69147 V 742.5196 c 0,-3.2894 -2.7106,-6 -6,-6 z m 0,4 h 16 c 1.14259,0 2,0.85741 2,2 v 10 H 86 v -10 c 0,-1.14259 0.857415,-2 2,-2 z" /><path
         id="path50"
         style="color:#000000;stroke-width:2.02116;stroke-linecap:round;stroke-linejoin:round;-inkscape-stroke:none;paint-order:stroke markers fill"
         d="m 104.21484,696.53913 c -4.527432,0 -8.191402,3.69271 -8.191402,8.15234 v 19.65625 c 0,4.45963 3.66397,8.14844 8.191402,8.14844 H 112 v 2.9375 c 0,2.81674 2.26919,5.08594 5.08594,5.08594 h 6.82812 c 2.81675,0 5.08594,-2.2692 5.08594,-5.08594 v -2.9375 h 6.78516 c 4.52743,0 8.1914,-3.68881 8.1914,-8.14844 v -19.65625 c 0,-4.45963 -3.66397,-8.15234 -8.1914,-8.15234 z m 0,3.95703 h 31.57032 c 2.31175,0 4.15234,1.81574 4.15234,4.19531 v 19.65625 c 0,2.37956 -1.84059,4.19141 -4.15234,4.19141 h -31.57032 c -2.31175,0 -4.15234,-1.81185 -4.15234,-4.19141 v -19.65625 c 0,-2.37957 1.84059,-4.19531 4.15234,-4.19531 z m 11.78516,32 h 9 v 2.9375 c 0,0.60285 -0.48309,1.08594 -1.08594,1.08594 h -6.82812 c -0.60286,0 -1.08594,-0.48309 -1.08594,-1.08594 z" /><g
         id="g23" /></g><g
       id="g78"
       inkscape:label="display extend all join displays"
       transform="matrix(0.5,0,0,0.5,40,-27.2598)"
       style="display:inline;fill:#241f31;fill-opacity:1;stroke-width:2"><title
         id="title75">shell-display-external-only</title><path
         id="path22-61"
         style="color:#000000;display:inline;fill:#241f31;fill-opacity:1;stroke-width:2.02116;stroke-linecap:round;stroke-linejoin:round;-inkscape-stroke:none;paint-order:stroke markers fill"
         d="m 104,696.5196 c -4.52744,0 -8.1914,3.69272 -8.1914,8.15234 v 19.65626 c 0,4.45962 3.66396,8.14844 8.1914,8.14844 h 7.78516 v 2.9375 c 0,2.81672 2.26918,5.08592 5.08594,5.08592 h 6.82812 c 2.81674,0 5.08594,-2.26918 5.08594,-5.08592 v -2.9375 h 6.78516 c 4.52744,0 8.1914,-3.68882 8.1914,-8.14844 v -19.65626 c 0,-4.45962 -3.66396,-8.15234 -8.1914,-8.15234 z m 0,3.95704 h 31.57032 c 2.31176,0 4.15234,1.81574 4.15234,4.1953 v 19.65626 c 0,2.37954 -1.84058,4.1914 -4.15234,4.1914 H 104 c -2.31174,0 -4.15234,-1.81186 -4.15234,-4.1914 v -19.65626 c 0,-2.37956 1.8406,-4.1953 4.15234,-4.1953 z m 11.78516,32 h 9 v 2.9375 c 0,0.60284 -0.48308,1.08592 -1.08594,1.08592 h -6.82812 c -0.60286,0 -1.08594,-0.48308 -1.08594,-1.08592 z" /><rect
         style="display:inline;fill:none;fill-opacity:1;stroke:none;stroke-width:12;-inkscape-stroke:none;stop-color:#000000"
         id="rect75"
         width="64"
         height="64"
         x="80"
         y="694.51965" /><path
         id="path48-7"
         style="color:#000000;fill:#242032;fill-opacity:0.2;stroke-linecap:round;stroke-linejoin:round;-inkscape-stroke:none;paint-order:stroke markers fill"
         d="m 88,736.5196 c -3.289399,0 -6,2.7106 -6,6 v 11.17187 l -1.414062,1.41407 A 2.0002,2.0002 0 0 0 82,758.5196 h 28 a 2.0002,2.0002 0 0 0 1.41406,-3.41406 L 110,753.69147 V 742.5196 c 0,-3.2894 -2.7106,-6 -6,-6 z m 0,4 h 16 c 1.14259,0 2,0.85741 2,2 v 10 H 86 v -10 c 0,-1.14259 0.857408,-2 2,-2 z" /></g><g
       id="g88"
       inkscape:label="display extend all join displays"
       transform="matrix(0.5,0,0,0.5,80,-27.2598)"
       style="display:inline;stroke-width:2"><title
         id="title85">shell-display-built-in-only</title><path
         id="path22-61-8"
         style="color:#000000;display:inline;fill:#242032;fill-opacity:0.2;stroke-width:2.022;stroke-linecap:round;stroke-linejoin:round;stroke-dasharray:none;paint-order:stroke markers fill"
         d="m 104.20783,696.5196 c -4.529457,0 -8.195045,3.69436 -8.195045,8.15596 v 19.665 c 0,4.4616 3.665588,8.15206 8.195045,8.15206 h 7.78862 v 2.9388 c 0,2.81797 2.27019,5.08818 5.0882,5.08818 h 6.83115 c 2.81798,0 5.08819,-2.27019 5.08819,-5.08818 v -2.9388 h 6.78819 c 4.52944,0 8.19504,-3.69046 8.19504,-8.15206 v -19.665 c 0,-4.4616 -3.6656,-8.15596 -8.19504,-8.15596 z m 0,3.9588 h 31.58435 c 2.31278,0 4.15417,1.81654 4.15417,4.19716 v 19.665 c 0,2.38059 -1.84139,4.19326 -4.15417,4.19326 h -31.58435 c -2.31277,0 -4.15419,-1.81267 -4.15419,-4.19326 v -19.665 c 0,-2.38062 1.84142,-4.19716 4.15419,-4.19716 z m 11.7904,32.01422 h 9.00399 v 2.9388 c 0,0.60311 -0.48329,1.0864 -1.08642,1.0864 h -6.83115 c -0.60313,0 -1.08642,-0.48329 -1.08642,-1.0864 z" /><path
         id="path48-9"
         style="color:#000000;display:inline;fill:#241f31;fill-opacity:1;stroke-width:2;stroke-linecap:round;stroke-linejoin:round;-inkscape-stroke:none;paint-order:stroke markers fill"
         d="m 88,736.5196 c -3.2894,0 -6,2.7106 -6,6 v 11.17186 l -1.41406,1.41408 A 2.0002,2.0002 0 0 0 82,758.5196 h 28 a 2.0002,2.0002 0 0 0 1.41406,-3.41406 L 110,753.69146 V 742.5196 c 0,-3.2894 -2.7106,-6 -6,-6 z m 0,4 h 16 c 1.14258,0 2,0.8574 2,2 v 10 H 86 v -10 c 0,-1.1426 0.8574,-2 2,-2 z" /><rect
         style="display:inline;fill:none;stroke:none;stroke-width:12;-inkscape-stroke:none;stop-color:#000000"
         id="rect85"
         width="64"
         height="64"
         x="80"
         y="694.51965" /></g><g
       id="g4445"
       transform="translate(-52,-180)"
       inkscape:label="screenshooter capture windows"><title
         id="title4439">screenshot-ui-window</title><path
         id="rect28516"
         d="m 135,463 c -1.6447,0 -3,1.3553 -3,3 v 14 c 0,1.6447 1.3553,3 3,3 h 3.99805 v 3 c 0,1.6447 1.3553,3 3,3 h 18.99804 c 1.6447,0 3,-1.3553 3,-3 v -14 c 0,-1.6447 -1.3553,-3 -3,-3 h -4 v -3 c 0,-1.6447 -1.3553,-3 -3,-3 z m 0,2 h 18.99609 c 0.5713,0 1,0.4287 1,1 v 3 h -12.99804 c -1.6447,0 -3,1.3553 -3,3 v 9 H 135 c -0.5713,0 -1,-0.4287 -1,-1 v -14 c 0,-0.5713 0.4287,-1 1,-1 z m 6.99805,6 h 18.99804 c 0.5713,0 1,0.4287 1,1 v 14 c 0,0.5713 -0.4287,1 -1,1 h -18.99804 c -0.5713,0 -1,-0.4287 -1,-1 v -14 c 0,-0.5713 0.4287,-1 1,-1 z"
         style="fill:#241f31;fill-opacity:1" /><rect
         width="31.999998"
         height="31.999998"
         x="-491.99994"
         y="-163.99998"
         id="rect4441"
         transform="matrix(0,-1,-1,0,0,0)"
         style="fill:none;stroke-width:1" /></g><g
       id="g42319"
       transform="matrix(1,0,0,-1,-11.99998,671.99988)"
       inkscape:label="focus management windows"><title
         id="title42313">shell-focus-windows</title><path
         id="path42315"
         style="fill:#241f31;fill-opacity:1"
         d="m 152.99597,462 c 1.6447,0 2.99671,1.3553 3,3 l 0.004,2 h -2 l -0.004,-2 c -0.001,-0.5713 -0.4287,-1 -1,-1 h -17.996 c -0.5713,0 -1,0.4287 -1,1 v 13 c 0,0.5713 0.4287,1 1,1 h 3 v 3 h -3 c -1.6447,0 -3,-1.3553 -3,-3 v -14 c 0,-1.6447 1.3553,-3 3,-3 z m 8.00009,7 c 1.6447,0 3,1.3553 3,3 v 14 c 0,1.6447 -1.3553,3 -3,3 h -17.99804 c -1.6447,0 -3,-1.3553 -3,-3 v -14 c 0,-1.6447 1.3553,-3 3,-3 z m 0,2 h -17.99804 c -0.5713,0 -1,0.4287 -1,1 v 13 c 0,0.5713 0.4287,1 1,1 h 17.99804 c 0.5713,0 1,-0.4287 1,-1 v -13 c 0,-0.5713 -0.4287,-1 -1,-1 z"
         sodipodi:nodetypes="ssccssssssccsssssssssssssssssssssss" /><rect
         width="31.999998"
         height="31.999998"
         x="-491.99994"
         y="-163.99998"
         id="rect42317"
         transform="matrix(0,-1,-1,0,0,0)"
         style="fill:none;stroke-width:1" /></g><g
       id="g42429"
       inkscape:label="screenshooter capture display screen "
       transform="translate(-80,-207.53331)"><title
         id="title42423">screenshot-ui-show-pointer</title><rect
         transform="scale(-1,1)"
         y="663.53333"
         x="-96"
         height="16"
         width="16"
         id="rect42425"
         style="fill:none" /><path
         d="m 82.95312,664.60753 2.41797,13.21094 3.23828,-2.39844 2.05469,2.64844 c 1.03125,1.43359 3.14844,-0.21094 2.01172,-1.5625 l -2.01562,-2.59375 2.98437,-2.17579 z m 0,0"
         fill="#2e3436"
         id="path2-35" /></g><g
       transform="matrix(-1,0,0,1,196.0059,-7)"
       inkscape:label="menu item check radio"
       id="g4179-7-8"><title
         id="title146367">ornament-dot-unchecked</title><rect
         id="rect3246-4-6-5-6"
         width="16"
         height="16"
         x="160"
         y="487"
         style="fill:none" /><path
         d="m 168.00586,487 c -4.40435,0 -8,3.59563 -8,8 0,4.40433 3.59565,8 8,8 4.40433,0 8,-3.59567 8,-8 0,-4.40437 -3.59568,-8 -8,-8 z m 0,2 c 3.32155,0 6,2.6784 6,6 0,3.32154 -2.67846,6 -6,6 -3.32158,0 -6,-2.67845 -6,-6 0,-3.3216 2.67842,-6 6,-6 z"
         id="path8781"
         style="fill:#2e3435;fill-opacity:0.2" /></g><g
       id="g13"
       inkscape:label="window close exit"
       transform="translate(-64,88)"><title
         id="title13">preview-close</title><g
         id="g14227"
         transform="translate(-71.999987,-167.99997)"
         inkscape:label="overview window close"><title
           id="title15444">preview-close</title><rect
           width="23.999996"
           height="23.999996"
           x="-487.99997"
           y="-159.99998"
           id="rect14223"
           transform="matrix(0,-1,-1,0,0,0)"
           style="fill:none" /></g><path
         id="path986"
         d="m 71,302 a 1,1 0 0 0 -0.707031,0.29297 1,1 0 0 0 0,1.41406 L 74.585938,308 l -4.292969,4.29297 a 1,1 0 0 0 0,1.41406 1,1 0 0 0 1.414062,0 L 76,309.41406 l 4.292969,4.29297 a 1,1 0 0 0 1.414062,0 1,1 0 0 0 0,-1.41406 L 77.414062,308 l 4.292969,-4.29297 a 1,1 0 0 0 0,-1.41406 A 1,1 0 0 0 81,302 1,1 0 0 0 80.292969,302.29297 L 76,306.58594 71.707031,302.29297 A 1,1 0 0 0 71,302 Z"
         style="fill:#241f31;fill-opacity:1" /></g><g
       id="g691"
       transform="translate(-3.99999,-116)"
       inkscape:label="overview previous left backward"><title
         id="title685">carousel-arrow-previous</title><path
         style="color:#000000;fill:#000000;stroke-linecap:round;stroke-linejoin:round;-inkscape-stroke:none"
         d="m 50,504 a 1,1 0 0 0 -0.707031,0.29297 l -7,7 a 1.0001,1.0001 0 0 0 0,1.41406 l 7,7 a 1,1 0 0 0 1.414062,0 1,1 0 0 0 0,-1.41406 L 44.414062,512 l 6.292969,-6.29297 a 1,1 0 0 0 0,-1.41406 A 1,1 0 0 0 50,504 Z"
         id="path6-4-7" /><rect
         width="15.999988"
         height="15.999966"
         x="39.999992"
         y="504"
         id="rect687"
         style="fill:none;stroke-width:0.999999" /></g><g
       id="g8"
       inkscape:label="focus dash dock"
       transform="translate(-80,-32)"><title
         id="title8">shell-focus-dash</title><rect
         width="31.999998"
         height="31.999998"
         x="-243.99994"
         y="119.99999"
         id="rect4"
         transform="rotate(-90)"
         style="fill:none;stroke-width:1" /><path
         id="rect5"
         style="color:#000000;fill:#241f31;stroke-linecap:square;stroke-linejoin:round;stroke-dashoffset:2;-inkscape-stroke:none"
         d="m 120,215 v 2 h 25 c 2.78729,0 5,2.21271 5,5 v 12 c 0,2.78729 -2.21271,5 -5,5 h -25 v 2 h 25 c 3.8607,0 7,-3.1393 7,-7 v -12 c 0,-3.8607 -3.1393,-7 -7,-7 z m 15,8 c -0.554,0 -1,0.446 -1,1 0,0.554 0.446,1 1,1 0.554,0 1,-0.446 1,-1 0,-0.554 -0.446,-1 -1,-1 z m 4,0 c -0.554,0 -1,0.446 -1,1 0,0.554 0.446,1 1,1 0.554,0 1,-0.446 1,-1 0,-0.554 -0.446,-1 -1,-1 z m 4,0 c -0.554,0 -1,0.446 -1,1 0,0.554 0.446,1 1,1 0.554,0 1,-0.446 1,-1 0,-0.554 -0.446,-1 -1,-1 z m -8,4 c -0.554,0 -1,0.446 -1,1 0,0.554 0.446,1 1,1 0.554,0 1,-0.446 1,-1 0,-0.554 -0.446,-1 -1,-1 z m 4,0 c -0.554,0 -1,0.446 -1,1 0,0.554 0.446,1 1,1 0.554,0 1,-0.446 1,-1 0,-0.554 -0.446,-1 -1,-1 z m 4,0 c -0.554,0 -1,0.446 -1,1 0,0.554 0.446,1 1,1 0.554,0 1,-0.446 1,-1 0,-0.554 -0.446,-1 -1,-1 z m -8,4 c -0.554,0 -1,0.446 -1,1 0,0.554 0.446,1 1,1 0.554,0 1,-0.446 1,-1 0,-0.554 -0.446,-1 -1,-1 z m 4,0 c -0.554,0 -1,0.446 -1,1 0,0.554 0.446,1 1,1 0.554,0 1,-0.446 1,-1 0,-0.554 -0.446,-1 -1,-1 z m 4,0 c -0.554,0 -1,0.446 -1,1 0,0.554 0.446,1 1,1 0.554,0 1,-0.446 1,-1 0,-0.554 -0.446,-1 -1,-1 z" /><path
         id="rect9"
         style="opacity:1;fill:#241f31;fill-opacity:0.2;stroke:none;stroke-width:2;stroke-linecap:square;stroke-linejoin:round;stroke-dasharray:none;stroke-dashoffset:2;stroke-opacity:1"
         d="m 120,219 v 18 h 5 c 1.662,0 3,-1.338 3,-3 v -12 c 0,-1.662 -1.338,-3 -3,-3 z" /></g><g
       inkscape:label="focus applications grid overview"
       transform="matrix(2,0,0,2,-304.01212,-796)"
       id="g3941"
       style="stroke-width:0.5"><title
         id="title9844">shell-focus-app-grid</title><rect
         id="rect3966"
         width="16"
         height="16"
         x="192.00606"
         y="488"
         style="fill:none;stroke-width:0.5" /><path
         id="rect3972"
         d="m 196,491 c -0.554,0 -1,0.446 -1,1 0,0.554 0.446,1 1,1 0.554,0 1,-0.446 1,-1 0,-0.554 -0.446,-1 -1,-1 z m 4,0 c -0.554,0 -1,0.446 -1,1 0,0.554 0.446,1 1,1 0.554,0 1,-0.446 1,-1 0,-0.554 -0.446,-1 -1,-1 z m 4,0 c -0.554,0 -1,0.446 -1,1 0,0.554 0.446,1 1,1 0.554,0 1,-0.446 1,-1 0,-0.554 -0.446,-1 -1,-1 z m -8,4 c -0.554,0 -1,0.446 -1,1 0,0.554 0.446,1 1,1 0.554,0 1,-0.446 1,-1 0,-0.554 -0.446,-1 -1,-1 z m 4,0 c -0.554,0 -1,0.446 -1,1 0,0.554 0.446,1 1,1 0.554,0 1,-0.446 1,-1 0,-0.554 -0.446,-1 -1,-1 z m 4,0 c -0.554,0 -1,0.446 -1,1 0,0.554 0.446,1 1,1 0.554,0 1,-0.446 1,-1 0,-0.554 -0.446,-1 -1,-1 z m -8,4 c -0.554,0 -1,0.446 -1,1 0,0.554 0.446,1 1,1 0.554,0 1,-0.446 1,-1 0,-0.554 -0.446,-1 -1,-1 z m 4,0 c -0.554,0 -1,0.446 -1,1 0,0.554 0.446,1 1,1 0.554,0 1,-0.446 1,-1 0,-0.554 -0.446,-1 -1,-1 z m 4,0 c -0.554,0 -1,0.446 -1,1 0,0.554 0.446,1 1,1 0.554,0 1,-0.446 1,-1 0,-0.554 -0.446,-1 -1,-1 z"
         style="fill:#241f31;fill-opacity:1;stroke-width:0.5" /></g><g
       id="g19"
       inkscape:label="focus management search"
       transform="translate(0,-32)"><title
         id="title19">shell-focus-search</title><rect
         width="31.999998"
         height="31.999998"
         x="-243.99994"
         y="159.99998"
         id="rect10"
         transform="rotate(-90)"
         style="fill:none;stroke-width:1" /><path
         style="color:#000000;fill:#241f31;stroke-linecap:square;stroke-linejoin:round;stroke-dashoffset:2;-inkscape-stroke:none"
         d="m 173.5,215 c -5.78714,0 -10.5,4.71286 -10.5,10.5 0,5.78714 4.71286,10.5 10.5,10.5 2.6227,0 4.95218,-1.06098 6.79492,-2.6582 -0.0231,0.12059 -0.0238,0.2444 -0.002,0.36523 l 6,6 c 0.2538,0.24699 0.6193,0.34134 0.96094,0.24805 0.73461,-0.2008 0.98418,-1.11626 0.45312,-1.66211 l -6,-6 c -0.12083,-0.0218 -0.24464,-0.0211 -0.36523,0.002 C 182.93902,230.45218 184,228.1227 184,225.5 184,219.71286 179.28714,215 173.5,215 Z m 0,2 c 4.70626,0 8.5,3.79374 8.5,8.5 0,4.70626 -3.79374,8.5 -8.5,8.5 -4.70626,0 -8.5,-3.79374 -8.5,-8.5 0,-4.70626 3.79374,-8.5 8.5,-8.5 z"
         id="path11"
         sodipodi:nodetypes="ssscccccccsssssss" /></g><g
       id="g15"
       transform="matrix(-1,0,0,1,163.99997,-280)"
       inkscape:label="focus management top bar panel"><title
         id="title15">shell-focus-top-bar</title><path
         id="path15"
         style="fill:#241f31;fill-opacity:1;stroke-width:1"
         d="m 161.99997,463 c 2,0 2,1.71498 2,2 v 22 h -2 v -17 c 0,-1 -1,-1 -1,-1 h -29 v -6 z m -2,2 h -4 c -0.554,0 -1,0.446 -1,1 0,0.554 0.446,1 1,1 h 4 c 0.554,0 1,-0.446 1,-1 0,-0.554 -0.446,-1 -1,-1 z m -7,0.25 c -0.41421,0 -0.75,0.33579 -0.75,0.75 0,0.41421 0.33579,0.75 0.75,0.75 0.41421,0 0.75,-0.33579 0.75,-0.75 0,-0.41421 -0.33579,-0.75 -0.75,-0.75 z"
         sodipodi:nodetypes="scccccccsssssssssssss" /><rect
         width="31.999998"
         height="31.999998"
         x="-491.99994"
         y="-163.99998"
         id="rect15"
         transform="matrix(0,-1,-1,0,0,0)"
         style="fill:none;stroke-width:1" /><path
         id="path23"
         style="fill:#241f31;fill-opacity:0.35;stroke-width:1"
         d="m 152.99997,465 h -1 c -0.554,0 -1,0.446 -1,1 0,0.554 0.446,1 1,1 h 1 c 0.554,0 1,-0.446 1,-1 0,-0.554 -0.446,-1 -1,-1 z"
         sodipodi:nodetypes="sssssss" /></g><g
       id="g3"
       transform="translate(68,-280)"
       inkscape:label="focus desktop tasks screen "><title
         id="title1">shell-focus-desktop</title><rect
         width="31.999998"
         height="31.999998"
         x="-491.99994"
         y="-163.99998"
         id="rect1"
         transform="matrix(0,-1,-1,0,0,0)"
         style="fill:none;stroke-width:1" /><path
         id="path3"
         d="m 135,463 c -1.662,0 -3,1.338 -3,3 v 19 c 0,1.662 1.338,3 3,3 h 26 c 1.662,0 3,-1.338 3,-3 v -19 c 0,-1.662 -1.338,-3 -3,-3 z m 0,3 h 26 c 0.554,0 1,0.446 1,1 v 18 c 0,0.554 -0.446,1 -1,1 h -26 c -0.554,0 -1,-0.446 -1,-1 v -18 c 0,-0.554 0.446,-1 1,-1 z"
         style="fill:#241f31;fill-opacity:1"
         sodipodi:nodetypes="ssssssssssssssssss" /><path
         id="rect6"
         style="opacity:1;fill:#231e2d;fill-opacity:0.2;stroke-width:4;stroke-linecap:square;stroke-linejoin:round;stroke-dashoffset:2"
         d="m 136.75,468 h 1.5 c 0.4155,0 0.75,0.3345 0.75,0.75 v 1.5 c 0,0.4155 -0.3345,0.75 -0.75,0.75 h -1.5 c -0.4155,0 -0.75,-0.3345 -0.75,-0.75 v -1.5 c 0,-0.4155 0.3345,-0.75 0.75,-0.75 z"
         sodipodi:nodetypes="sssssssss" /><path
         id="path4"
         style="opacity:1;fill:#231e2d;fill-opacity:0.2;stroke-width:4;stroke-linecap:square;stroke-linejoin:round;stroke-dashoffset:2"
         d="m 136.75,472 h 1.5 c 0.4155,0 0.75,0.3345 0.75,0.75 v 1.5 c 0,0.4155 -0.3345,0.75 -0.75,0.75 h -1.5 c -0.4155,0 -0.75,-0.3345 -0.75,-0.75 v -1.5 c 0,-0.4155 0.3345,-0.75 0.75,-0.75 z"
         sodipodi:nodetypes="sssssssss" /><path
         id="path5"
         style="opacity:1;fill:#231e2d;fill-opacity:0.2;stroke-width:4;stroke-linecap:square;stroke-linejoin:round;stroke-dashoffset:2"
         d="m 136.75,476 h 1.5 c 0.4155,0 0.75,0.3345 0.75,0.75 v 1.5 c 0,0.4155 -0.3345,0.75 -0.75,0.75 h -1.5 c -0.4155,0 -0.75,-0.3345 -0.75,-0.75 v -1.5 c 0,-0.4155 0.3345,-0.75 0.75,-0.75 z"
         sodipodi:nodetypes="sssssssss" /></g><g
       id="g17"
       inkscape:label="focus dash dock"
       transform="matrix(-1,0,0,1,191.99999,8)"><title
         id="title16">shell-focus-dash-rtl</title><rect
         width="31.999998"
         height="31.999998"
         x="-243.99994"
         y="119.99999"
         id="rect16"
         transform="rotate(-90)"
         style="fill:none;stroke-width:1" /><path
         id="path16"
         style="color:#000000;fill:#241f31;stroke-linecap:square;stroke-linejoin:round;stroke-dashoffset:2;-inkscape-stroke:none"
         d="m 120,215 v 2 h 25 c 2.78729,0 5,2.21271 5,5 v 12 c 0,2.78729 -2.21271,5 -5,5 h -25 v 2 h 25 c 3.8607,0 7,-3.1393 7,-7 v -12 c 0,-3.8607 -3.1393,-7 -7,-7 z m 15,8 c -0.554,0 -1,0.446 -1,1 0,0.554 0.446,1 1,1 0.554,0 1,-0.446 1,-1 0,-0.554 -0.446,-1 -1,-1 z m 4,0 c -0.554,0 -1,0.446 -1,1 0,0.554 0.446,1 1,1 0.554,0 1,-0.446 1,-1 0,-0.554 -0.446,-1 -1,-1 z m 4,0 c -0.554,0 -1,0.446 -1,1 0,0.554 0.446,1 1,1 0.554,0 1,-0.446 1,-1 0,-0.554 -0.446,-1 -1,-1 z m -8,4 c -0.554,0 -1,0.446 -1,1 0,0.554 0.446,1 1,1 0.554,0 1,-0.446 1,-1 0,-0.554 -0.446,-1 -1,-1 z m 4,0 c -0.554,0 -1,0.446 -1,1 0,0.554 0.446,1 1,1 0.554,0 1,-0.446 1,-1 0,-0.554 -0.446,-1 -1,-1 z m 4,0 c -0.554,0 -1,0.446 -1,1 0,0.554 0.446,1 1,1 0.554,0 1,-0.446 1,-1 0,-0.554 -0.446,-1 -1,-1 z m -8,4 c -0.554,0 -1,0.446 -1,1 0,0.554 0.446,1 1,1 0.554,0 1,-0.446 1,-1 0,-0.554 -0.446,-1 -1,-1 z m 4,0 c -0.554,0 -1,0.446 -1,1 0,0.554 0.446,1 1,1 0.554,0 1,-0.446 1,-1 0,-0.554 -0.446,-1 -1,-1 z m 4,0 c -0.554,0 -1,0.446 -1,1 0,0.554 0.446,1 1,1 0.554,0 1,-0.446 1,-1 0,-0.554 -0.446,-1 -1,-1 z" /><path
         id="path17"
         style="opacity:1;fill:#241f31;fill-opacity:0.2;stroke:none;stroke-width:2;stroke-linecap:square;stroke-linejoin:round;stroke-dasharray:none;stroke-dashoffset:2;stroke-opacity:1"
         d="m 120,219 v 18 h 5 c 1.662,0 3,-1.338 3,-3 v -12 c 0,-1.662 -1.338,-3 -3,-3 z" /></g><g
       id="g20"
       transform="translate(-131.99998,-240)"
       inkscape:label="focus management top bar panel"><title
         id="title17">shell-focus-top-bar-rtl</title><path
         id="path18"
         style="fill:#241f31;fill-opacity:1;stroke-width:1"
         d="m 161.99997,463 c 2,0 2,1.71498 2,2 v 22 h -2 v -17 c 0,-1 -1,-1 -1,-1 h -29 v -6 z m -2,2 h -4 c -0.554,0 -1,0.446 -1,1 0,0.554 0.446,1 1,1 h 4 c 0.554,0 1,-0.446 1,-1 0,-0.554 -0.446,-1 -1,-1 z m -7,0.25 c -0.41421,0 -0.75,0.33579 -0.75,0.75 0,0.41421 0.33579,0.75 0.75,0.75 0.41421,0 0.75,-0.33579 0.75,-0.75 0,-0.41421 -0.33579,-0.75 -0.75,-0.75 z"
         sodipodi:nodetypes="scccccccsssssssssssss" /><rect
         width="31.999998"
         height="31.999998"
         x="-491.99994"
         y="-163.99998"
         id="rect18"
         transform="matrix(0,-1,-1,0,0,0)"
         style="fill:none;stroke-width:1" /><path
         id="path19"
         style="fill:#241f31;fill-opacity:0.35;stroke-width:1"
         d="m 152.99997,465 h -1 c -0.554,0 -1,0.446 -1,1 0,0.554 0.446,1 1,1 h 1 c 0.554,0 1,-0.446 1,-1 0,-0.554 -0.446,-1 -1,-1 z"
         sodipodi:nodetypes="sssssss" /></g><g
       id="g10"
       transform="translate(68,-240)"
       inkscape:label="focus desktop tasks screen "><title
         id="title7">shell-focus-desktop-rtl</title><rect
         width="31.999998"
         height="31.999998"
         x="-491.99994"
         y="-163.99998"
         id="rect7"
         transform="matrix(0,-1,-1,0,0,0)"
         style="fill:none;stroke-width:1" /><path
         id="path7"
         d="m 135,463 c -1.662,0 -3,1.338 -3,3 v 19 c 0,1.662 1.338,3 3,3 h 26 c 1.662,0 3,-1.338 3,-3 v -19 c 0,-1.662 -1.338,-3 -3,-3 z m 0,3 h 26 c 0.554,0 1,0.446 1,1 v 18 c 0,0.554 -0.446,1 -1,1 h -26 c -0.554,0 -1,-0.446 -1,-1 v -18 c 0,-0.554 0.446,-1 1,-1 z"
         style="fill:#241f31;fill-opacity:1"
         sodipodi:nodetypes="ssssssssssssssssss" /><path
         id="path8"
         style="opacity:1;fill:#231e2d;fill-opacity:0.2;stroke-width:4;stroke-linecap:square;stroke-linejoin:round;stroke-dashoffset:2"
         d="m 157.75,468 h 1.5 c 0.4155,0 0.75,0.3345 0.75,0.75 v 1.5 c 0,0.4155 -0.3345,0.75 -0.75,0.75 h -1.5 c -0.4155,0 -0.75,-0.3345 -0.75,-0.75 v -1.5 c 0,-0.4155 0.3345,-0.75 0.75,-0.75 z"
         sodipodi:nodetypes="sssssssss" /><path
         id="path9"
         style="opacity:1;fill:#231e2d;fill-opacity:0.2;stroke-width:4;stroke-linecap:square;stroke-linejoin:round;stroke-dashoffset:2"
         d="m 157.75,472 h 1.5 c 0.4155,0 0.75,0.3345 0.75,0.75 v 1.5 c 0,0.4155 -0.3345,0.75 -0.75,0.75 h -1.5 c -0.4155,0 -0.75,-0.3345 -0.75,-0.75 v -1.5 c 0,-0.4155 0.3345,-0.75 0.75,-0.75 z"
         sodipodi:nodetypes="sssssssss" /><path
         id="path10"
         style="opacity:1;fill:#231e2d;fill-opacity:0.2;stroke-width:4;stroke-linecap:square;stroke-linejoin:round;stroke-dashoffset:2"
         d="m 157.75,476 h 1.5 c 0.4155,0 0.75,0.3345 0.75,0.75 v 1.5 c 0,0.4155 -0.3345,0.75 -0.75,0.75 h -1.5 c -0.4155,0 -0.75,-0.3345 -0.75,-0.75 v -1.5 c 0,-0.4155 0.3345,-0.75 0.75,-0.75 z"
         sodipodi:nodetypes="sssssssss" /></g><g
       transform="matrix(-1,0,0,1,216.0059,-7)"
       inkscape:label="menu item check radio"
       id="g12"><title
         id="title10">ornament-check</title><rect
         id="rect11"
         width="16"
         height="16"
         x="160"
         y="487"
         style="fill:none" /><path
         d="m 162.2479,491.66197 c -0.17578,-0.19922 -0.26171,-0.46094 -0.24609,-0.72657 0.0195,-0.26562 0.14063,-0.51172 0.33984,-0.6875 0.19922,-0.17578 0.46094,-0.26172 0.72657,-0.24609 0.26562,0.0195 0.51172,0.14062 0.6875,0.33984 l 6.29687,7.19532 2.24219,-2.24219 c 0.39062,-0.39063 1.02344,-0.39063 1.41406,0 0.1875,0.1875 0.29297,0.4414 0.29297,0.70703 0,0.26562 -0.10547,0.51953 -0.29297,0.70703 l -3,3 c -0.19531,0.19531 -0.46484,0.30469 -0.73828,0.29297 -0.27734,-0.008 -0.53906,-0.13281 -0.72266,-0.33984 z m 0,0"
         fill="#2e3436"
         id="path1-3" /></g><g
       id="g21"
       inkscape:label="menu item check radio"
       transform="translate(0,28)"><title
         id="title21">ornament-dot-checked</title><path
         id="path9555"
         d="m 8.006,457 c 1.65555,0 3,1.34444 3,3 0,1.65555 -1.34445,3 -3,3 -1.65555,0 -3,-1.34445 -3,-3 0,-1.65556 1.34445,-3 3,-3 z"
         style="fill:#2e3436;fill-opacity:1"
         sodipodi:nodetypes="sssss" /><path
         id="path12"
         d="m 8,452 c 4.40433,0 8,3.59566 8,8 0,4.40433 -3.59566,8 -8,8 -4.40434,0 -8,-3.59566 -8,-8 0,-4.40435 3.59566,-8 8,-8 z m 0,2 c -3.32157,0 -6,2.67843 -6,6 0,3.32156 2.67843,6 6,6 3.32156,0 6,-2.67844 6,-6 0,-3.32157 -2.67844,-6 -6,-6 z"
         style="fill:#2e3435;fill-opacity:0.2"
         sodipodi:nodetypes="ssssssssss" /><rect
         id="rect19"
         width="16"
         height="16"
         x="-16.005899"
         y="452"
         style="fill:none"
         transform="scale(-1,1)" /></g></g></svg>
