<?xml version="1.0" encoding="UTF-8" standalone="no"?>
<!-- Generator: Adobe Illustrator 13.0.2, SVG Export Plug-In . SVG Version: 6.00 Build 14948)  -->
<svg
   xmlns:dc="http://purl.org/dc/elements/1.1/"
   xmlns:cc="http://creativecommons.org/ns#"
   xmlns:rdf="http://www.w3.org/1999/02/22-rdf-syntax-ns#"
   xmlns:svg="http://www.w3.org/2000/svg"
   xmlns="http://www.w3.org/2000/svg"
   xmlns:sodipodi="http://sodipodi.sourceforge.net/DTD/sodipodi-0.dtd"
   xmlns:inkscape="http://www.inkscape.org/namespaces/inkscape"
   version="1.1"
   id="Foreground"
   x="0px"
   y="0px"
   width="29px"
   height="18px"
   viewBox="0 0 29 18"
   enable-background="new 0 0 29 18"
   xml:space="preserve"
   sodipodi:version="0.32"
   inkscape:version="0.46"
   sodipodi:docname="search_2.svg"
   inkscape:output_extension="org.inkscape.output.svg.inkscape"><metadata
   id="metadata16"><rdf:RDF><cc:Work
       rdf:about=""><dc:format>image/svg+xml</dc:format><dc:type
         rdf:resource="http://purl.org/dc/dcmitype/StillImage" /></cc:Work></rdf:RDF></metadata><defs
   id="defs14"><inkscape:perspective
   sodipodi:type="inkscape:persp3d"
   inkscape:vp_x="0 : 9 : 1"
   inkscape:vp_y="0 : 1000 : 0"
   inkscape:vp_z="29 : 9 : 1"
   inkscape:persp3d-origin="14.5 : 6 : 1"
   id="perspective18" />
	
	
</defs><sodipodi:namedview
   inkscape:window-height="728"
   inkscape:window-width="1103"
   inkscape:pageshadow="2"
   inkscape:pageopacity="0.0"
   guidetolerance="10.0"
   gridtolerance="10.0"
   objecttolerance="10.0"
   borderopacity="1.0"
   bordercolor="#666666"
   pagecolor="#ffffff"
   id="base"
   showgrid="false"
   inkscape:zoom="19.275862"
   inkscape:cx="14.5"
   inkscape:cy="9"
   inkscape:window-x="40"
   inkscape:window-y="40"
   inkscape:current-layer="Foreground"><inkscape:grid
     type="xygrid"
     id="grid2391" /></sodipodi:namedview>

<path
   style="fill:#4669a9;fill-opacity:1"
   id="path9"
   d="" />
<path
   id="path3"
   style="fill:#3d5a93;fill-opacity:1"
   d="M 0,3 C 0,1.343 1.343,0 3,0 L 20,0 C 20.515,0 21.027,0.195 21.42,0.588 L 28.412,7.58 C 29.196,8.364 29.196,9.636 28.412,10.42 L 21.42,17.412 C 21.028,17.804 20.514,18 20,18 L 3,18 C 1.343,18 0,16.657 0,15 L 0,3 zM 13.5,3 C 11.015,3 9,5.015 9,7.5 C 9,8.2423219 9.1815696,8.9452421 9.5,9.5625 L 6.25,12.8125 C 5.931,13.1325 5.9310002,13.64975 6.25,13.96875 L 7.03125,14.78125 C 7.35025,15.10025 7.8674999,15.10025 8.1875,14.78125 L 11.46875,11.5 C 12.080227,11.810879 12.767137,12 13.5,12 C 15.985,12 18,9.985 18,7.5 C 18,5.015 15.985,3 13.5,3 z M 11.25,7.5 C 11.25,6.257 12.257,5.25 13.5,5.25 C 14.743,5.25 15.75,6.257 15.75,7.5 C 15.75,8.743 14.743,9.75 13.5,9.75 C 12.257,9.75 11.25,8.743 11.25,7.5 z" />
</svg>