<?xml version="1.0" encoding="UTF-8" standalone="no"?>
<svg
   viewBox="-4 -4 32 32"
   width="32"
   height="32"
   id="svg2"
   version="1.0"
   xml:space="preserve"
   sodipodi:docname="context-menu.svg"
   inkscape:version="1.4.4 (dcaf3e7d9e, 2026-05-05)"
   xmlns:inkscape="http://www.inkscape.org/namespaces/inkscape"
   xmlns:sodipodi="http://sodipodi.sourceforge.net/DTD/sodipodi-0.dtd"
   xmlns="http://www.w3.org/2000/svg"
   xmlns:svg="http://www.w3.org/2000/svg"
   xmlns:rdf="http://www.w3.org/1999/02/22-rdf-syntax-ns#"
   xmlns:cc="http://creativecommons.org/ns#"
   xmlns:dc="http://purl.org/dc/elements/1.1/">
  <defs
   id="defs4">
  <filter
   style="color-interpolation-filters:sRGB"
   id="filter648"
   x="-0.12"
   y="-0.11535059"
   width="1.24"
   height="1.2307012">
  <feGaussianBlur
   stdDeviation="1 1"
   result="blur"
   id="feGaussianBlur648" />
  </filter>
  <filter
   style="color-interpolation-filters:sRGB"
   id="filter971"
   x="-0.072000003"
   y="-0.069210358"
   width="1.144"
   height="1.1384207">
  <feGaussianBlur
   stdDeviation="0.6 0.6"
   result="blur"
   id="feGaussianBlur971" />
  </filter>
  </defs>
  <sodipodi:namedview
   id="namedview1"
   pagecolor="#ffffff"
   bordercolor="#000000"
   borderopacity="0.25"
   inkscape:showpageshadow="2"
   inkscape:pageopacity="0.0"
   inkscape:pagecheckerboard="0"
   inkscape:deskcolor="#d1d1d1"
   inkscape:zoom="1"
   inkscape:cx="11.5"
   inkscape:cy="12"
   inkscape:window-width="5120"
   inkscape:window-height="1371"
   inkscape:window-x="0"
   inkscape:window-y="0"
   inkscape:window-maximized="1"
   inkscape:current-layer="svg2" />
  <metadata
   id="metadata7">
  <rdf:RDF>
  <cc:Work
   rdf:about="">
  <dc:format>image/svg+xml</dc:format>
  <dc:type
   rdf:resource="http://purl.org/dc/dcmitype/StillImage" />
  <dc:creator>
  <cc:Agent>
  <dc:title>Jakub Steiner</dc:title>
  </cc:Agent>
  </dc:creator>
  <cc:license
   rdf:resource="http://en.wikipedia.org/wiki/MIT_License" />
  <dc:source>http://jimmac.musichall.cz/themes.php?skin=7</dc:source>
  <dc:subject>
  <rdf:Bag>
  <rdf:li>negative</rdf:li>
  <rdf:li>inverted</rdf:li>
  <rdf:li>cursor</rdf:li>
  <rdf:li>theme</rdf:li>
  <rdf:li>X</rdf:li>
  <rdf:li>xorg</rdf:li>
  <rdf:li>xcursor</rdf:li>
  </rdf:Bag>
  </dc:subject>
  <dc:description>Inverted variant of the DMZ cursor theme.</dc:description>
  </cc:Work>
  </rdf:RDF>
  </metadata>
  <g
   id="layer5"
   style="display:inline"
   transform="translate(-176,-16)">
  <path
   id="path372"
   style="display:inline;opacity:0.2;fill:#000000;stroke-width:0;stroke-linecap:round;stroke-linejoin:round;filter:url(#filter648)"
   d="m 179,18.289062 v 18.416016 l 3.8125,-3.814453 2.27734,4.980469 c 0.47974,1.049461 1.73381,1.514762 2.78321,1.035156 0.65025,-0.297278 1.07519,-0.891837 1.1914,-1.550781 C 189.20707,37.73323 189.57112,38 190,38 h 8 c 0.554,0 1,-0.446001 1,-1 V 27 c 0,-0.553999 -0.446,-1 -1,-1 h -8 c -0.554,0 -1,0.446001 -1,1 v 1.291016 z m 7.56641,12.708985 H 189 v 5.367187 c -0.0254,-0.0808 -0.0539,-0.161324 -0.0898,-0.240234 v -0.002 z" />
  <path
   id="path695"
   style="display:inline;opacity:0.3;fill:#000000;stroke-width:0;stroke-linecap:round;stroke-linejoin:round;filter:url(#filter971)"
   d="m 179,18.289062 v 18.416016 l 3.8125,-3.814453 2.27734,4.980469 c 0.47974,1.049461 1.73381,1.514762 2.78321,1.035156 0.65025,-0.297278 1.07519,-0.891837 1.1914,-1.550781 C 189.20707,37.73323 189.57112,38 190,38 h 8 c 0.554,0 1,-0.446001 1,-1 V 27 c 0,-0.553999 -0.446,-1 -1,-1 h -8 c -0.554,0 -1,0.446001 -1,1 v 1.291016 z m 7.56641,12.708985 H 189 v 5.367187 c -0.0254,-0.0808 -0.0539,-0.161324 -0.0898,-0.240234 v -0.002 z" />
  </g>
  <g
   id="layer1"
   style="display:inline"
   transform="translate(-176,-16)">
  <rect
   style="opacity:1;fill:#ffffff;fill-opacity:1;stroke:none;stroke-width:0;stroke-linecap:round;stroke-linejoin:round;stroke-dasharray:none;stroke-opacity:1"
   id="rect48"
   width="10"
   height="12"
   x="189"
   y="25"
   ry="1"
   rx="1" />
  <g
   style="display:inline;fill:none"
   id="g17-4"
   transform="translate(179,16.997107)">
  <path
   d="m 0.5,17.5 v -16 l 11,11 H 6.78783 l 2.66733,5.8348 c 0.36739,0.8036 0.01372,1.753 -0.78994,2.1204 -0.80367,0.3673 -1.75299,0.0137 -2.12038,-0.79 l -2.5757,-5.6343 z"
   fill="#000000"
   stroke="#ffffff"
   id="path1-6-5" />
  </g>
  <path
   id="rect49"
   style="opacity:1;fill:#000000;fill-opacity:1;stroke:none;stroke-width:0;stroke-linecap:round;stroke-linejoin:round;stroke-dasharray:none;stroke-opacity:1"
   d="m 190,27 v 9 h 8 v -9 z m 1,3 h 6 v 1 h -6 z m 0,2 h 6 v 1 h -6 z m 0,2 h 6 v 1 h -6 z" />
  </g>
    <path
   id="hotspot"
   d="M3 1h1v1h-1z"
   display="none"
   fill="#333" />
</svg>
