<?xml version="1.0" encoding="UTF-8"?>
<svg height="96px" viewBox="0 0 96 96" width="96px" xmlns="http://www.w3.org/2000/svg">
    <g fill="#ffffff">
        <path d="m 42 6.035156 c -1.773438 -0.007812 -3.460938 0.769532 -4.605469 2.121094 l -19.394531 21.84375 h -6 c -6.566406 0 -12 5.066406 -12 12 v 12 c 0 6.542969 5.457031 12 12 12 h 6 l 19.394531 21.84375 c 1.265625 1.511719 2.949219 2.171875 4.605469 2.15625 z m 17.804688 19.898438 c -0.777344 0.027344 -1.542969 0.289062 -2.230469 0.808594 c -1.050781 0.789062 -1.574219 1.984374 -1.570313 3.222656 v 0.28125 c 0.054688 0.75 0.292969 1.460937 0.773438 2.097656 c 6.988281 9.273438 6.988281 22.039062 0 31.3125 c -0.480469 0.636719 -0.71875 1.347656 -0.773438 2.097656 v 0.28125 c -0.003906 1.242188 0.519532 2.433594 1.570313 3.222656 c 1.785156 1.34375 4.257812 0.988282 5.601562 -0.796874 c 4.558594 -6.046876 6.832031 -13.25 6.832031 -20.460938 c 0 -7.207031 -2.273437 -14.410156 -6.832031 -20.460938 c -0.753906 -1.003906 -1.886719 -1.550781 -3.035156 -1.605468 c -0.113281 -0.003906 -0.222656 -0.003906 -0.335937 0 z m 0 0"/>
        <path d="m 80.765625 13.804688 c -0.769531 0 -1.527344 0.207031 -2.226563 0.679687 h -0.011718 c -1.851563 1.25 -2.328125 3.703125 -1.078125 5.554687 v 0.011719 c 11.402343 16.90625 11.402343 38.992188 0 55.898438 v 0.011719 c -1.25 1.851562 -0.773438 4.304687 1.078125 5.554687 h 0.011718 c 1.851563 1.25 4.304688 0.773437 5.554688 -1.078125 c 6.605469 -9.792969 9.902344 -21.117188 9.902344 -32.4375 s -3.296875 -22.640625 -9.902344 -32.4375 c -0.78125 -1.15625 -2.042969 -1.757812 -3.328125 -1.757812 z m 0 0" fill-opacity="0.34902"/>
    </g>
</svg>
