<?xml version="1.0" encoding="UTF-8"?>
<svg height="96px" viewBox="0 0 96 96" width="96px" xmlns="http://www.w3.org/2000/svg">
    <path d="m 42 6.035156 c -1.773438 -0.007812 -3.460938 0.769532 -4.605469 2.121094 l -19.394531 21.84375 h -6 c -6.566406 0 -12 5.066406 -12 12 v 12 c 0 6.542969 5.457031 12 12 12 h 6 l 19.394531 21.84375 c 1.265625 1.511719 2.949219 2.171875 4.605469 2.15625 z m 16.828125 25.136719 l -5.65625 5.65625 l 11.171875 11.171875 l -11.171875 11.171875 l 5.65625 5.65625 l 11.171875 -11.171875 l 11.171875 11.171875 l 5.65625 -5.65625 l -11.171875 -11.171875 l 11.171875 -11.171875 l -5.65625 -5.65625 l -11.171875 11.171875 z m 0 0" fill="#ffffff"/>
</svg>
