<?xml version="1.0" encoding="UTF-8"?>
<svg height="96px" viewBox="0 0 96 96" width="96px" xmlns="http://www.w3.org/2000/svg">
    <g fill="#ffffff">
        <path d="m 48 0 c -9.972656 0 -18 8.027344 -18 18 v 30 c 0 9.972656 8.027344 18 18 18 s 18 -8.027344 18 -18 v -30 c 0 -9.972656 -8.027344 -18 -18 -18 z m -32 36 c -2.210938 0 -4 1.789062 -4 4 v 8.058594 c 0 17.796875 12.988281 32.578125 30 35.4375 v 12.503906 h 12 v -12.503906 c 3.878906 -0.652344 7.550781 -1.925782 10.90625 -3.710938 l 1.78125 -1.785156 l -5.351562 -5.351562 c -3.960938 2.140624 -8.5 3.351562 -13.335938 3.351562 c -15.511719 0 -28 -12.488281 -28 -28 v -8 c 0 -2.210938 -1.789062 -4 -4 -4 z m 64 0 c -2.210938 0 -4 1.789062 -4 4 v 8 c 0 4.835938 -1.210938 9.375 -3.351562 13.335938 l 5.351562 5.351562 l 1.820312 -1.816406 c 2.667969 -5.019532 4.179688 -10.738282 4.179688 -16.8125 v -8.058594 c 0 -2.210938 -1.789062 -4 -4 -4 z m 0 0" fill-opacity="0.34902"/>
        <path d="m 66.828125 61.171875 l -5.65625 5.65625 l 11.171875 11.171875 l -11.171875 11.171875 l 5.65625 5.65625 l 11.171875 -11.171875 l 11.171875 11.171875 l 5.65625 -5.65625 l -11.171875 -11.171875 l 11.171875 -11.171875 l -5.65625 -5.65625 l -11.171875 11.171875 z m 0 0"/>
    </g>
</svg>
