<?xml version="1.0" encoding="UTF-8"?>
<svg height="96px" viewBox="0 0 96 96" width="96px" xmlns="http://www.w3.org/2000/svg">
    <path d="m 48 0 c -2.214844 0 -4 1.785156 -4 4 v 8 c 0 2.214844 1.785156 4 4 4 s 4 -1.785156 4 -4 v -8 c 0 -2.214844 -1.785156 -4 -4 -4 z m -31.113281 12.882812 c -1.023438 0 -2.042969 0.390626 -2.828125 1.175782 c -1.566406 1.566406 -1.566406 4.089844 0 5.65625 l 5.65625 5.660156 c 1.566406 1.566406 4.089844 1.566406 5.660156 0 c 1.566406 -1.570312 1.566406 -4.09375 0 -5.660156 l -5.660156 -5.65625 c -0.785156 -0.785156 -1.804688 -1.175782 -2.828125 -1.175782 z m 62.226562 0 c -1.023437 0 -2.042969 0.390626 -2.828125 1.175782 l -5.660156 5.65625 c -1.566406 1.566406 -1.566406 4.089844 0 5.660156 c 1.570312 1.566406 4.09375 1.566406 5.660156 0 l 5.65625 -5.660156 c 1.566406 -1.566406 1.566406 -4.089844 0 -5.65625 c -0.785156 -0.785156 -1.804687 -1.175782 -2.828125 -1.175782 z m -31.113281 11.117188 c -13.253906 0 -24 10.746094 -24 24 s 10.746094 24 24 24 s 24 -10.746094 24 -24 s -10.746094 -24 -24 -24 z m 0 8 c 8.835938 0 16 7.164062 16 16 s -7.164062 16 -16 16 s -16 -7.164062 -16 -16 s 7.164062 -16 16 -16 z m -44.292969 12 c -2.050781 0 -3.707031 1.65625 -3.707031 3.707031 v 0.585938 c 0 2.050781 1.65625 3.707031 3.707031 3.707031 h 8.585938 c 2.050781 0 3.707031 -1.65625 3.707031 -3.707031 v -0.585938 c 0 -2.050781 -1.65625 -3.707031 -3.707031 -3.707031 z m 80.292969 0 c -2.214844 0 -4 1.785156 -4 4 s 1.785156 4 4 4 h 8 c 2.214844 0 4 -1.785156 4 -4 s -1.785156 -4 -4 -4 z m -61.453125 25.453125 c -1.023437 0 -2.046875 0.390625 -2.832031 1.171875 l -5.65625 5.660156 c -1.566406 1.566406 -1.566406 4.089844 0 5.65625 s 4.089844 1.566406 5.65625 0 l 5.660156 -5.65625 c 1.566406 -1.566406 1.566406 -4.089844 0 -5.660156 c -0.785156 -0.78125 -1.808594 -1.171875 -2.828125 -1.171875 z m 50.90625 0 c -1.019531 0 -2.042969 0.390625 -2.828125 1.171875 c -1.566406 1.570312 -1.566406 4.09375 0 5.660156 l 5.660156 5.65625 c 1.566406 1.566406 4.089844 1.566406 5.65625 0 s 1.566406 -4.089844 0 -5.65625 l -5.65625 -5.660156 c -0.785156 -0.78125 -1.808594 -1.171875 -2.832031 -1.171875 z m -25.453125 10.546875 c -2.214844 0 -4 1.785156 -4 4 v 8 c 0 2.214844 1.785156 4 4 4 s 4 -1.785156 4 -4 v -8 c 0 -2.214844 -1.785156 -4 -4 -4 z m 0 0" fill="#ffffff"/>
</svg>
