<?xml version="1.0" encoding="UTF-8"?>
<svg height="96px" viewBox="0 0 96 96" width="96px" xmlns="http://www.w3.org/2000/svg">
    <g fill="#ffffff">
        <path d="m 48 0 c -9.972656 0 -18 8.027344 -18 18 v 26 h 8 v -26 c 0 -5.539062 4.460938 -10 10 -10 s 10 4.460938 10 10 v 26 h 8 v -26 c 0 -9.972656 -8.027344 -18 -18 -18 z m 0 0" fill-opacity="0.34902"/>
        <path d="m 30 40 v 4 c 0 9.972656 8.027344 18 18 18 s 18 -8.027344 18 -18 v -4 z m -14 -8 c -2.210938 0 -4 1.789062 -4 4 v 8.058594 c 0 17.796875 12.988281 32.578125 30 35.4375 v 12.503906 h 12 v -12.503906 c 17.011719 -2.859375 30 -17.640625 30 -35.4375 v -8.058594 c 0 -2.210938 -1.789062 -4 -4 -4 s -4 1.789062 -4 4 v 8 c 0 15.511719 -12.488281 28 -28 28 s -28 -12.488281 -28 -28 v -8 c 0 -2.210938 -1.789062 -4 -4 -4 z m 0 0"/>
    </g>
</svg>
