<?xml version="1.0" encoding="UTF-8"?>
<svg height="16px" viewBox="0 0 16 16" width="16px" xmlns="http://www.w3.org/2000/svg">
    <path d="m 13.980469 1.988281 c -0.261719 0.007813 -0.507813 0.117188 -0.6875 0.304688 l -0.984375 0.984375 c -1.285156 -0.828125 -2.78125 -1.273438 -4.308594 -1.277344 c -3.648438 0.003906 -6.832031 2.476562 -7.738281 6.011719 c 0.460937 1.746093 1.496093 3.285156 2.941406 4.367187 l -0.910156 0.914063 c -0.261719 0.25 -0.363281 0.621093 -0.273438 0.972656 c 0.09375 0.347656 0.367188 0.621094 0.714844 0.714844 c 0.351563 0.089843 0.722656 -0.011719 0.972656 -0.273438 l 11 -11 c 0.296875 -0.289062 0.386719 -0.726562 0.222657 -1.105469 c -0.160157 -0.382812 -0.539063 -0.625 -0.949219 -0.613281 z m -5.980469 2.011719 c 0.957031 0 1.886719 0.347656 2.609375 0.972656 l -1.417969 1.421875 c -0.34375 -0.257812 -0.761718 -0.394531 -1.191406 -0.394531 c -1.105469 0 -2 0.894531 -2 2 c 0 0.429688 0.140625 0.847656 0.394531 1.191406 l -1.417969 1.417969 c -0.628906 -0.722656 -0.972656 -1.652344 -0.976562 -2.609375 c 0 -2.210938 1.789062 -4 4 -4 z m 7.03125 2.210938 l -3.34375 3.339843 c -0.40625 0.960938 -1.167969 1.722657 -2.128906 2.128907 l -2.28125 2.28125 c 0.242187 0.023437 0.480468 0.035156 0.722656 0.039062 c 3.648438 -0.003906 6.832031 -2.476562 7.738281 -6.011719 c -0.164062 -0.617187 -0.402343 -1.214843 -0.710937 -1.777343 z m -7.53125 0.789062 c 0.277344 0 0.5 0.222656 0.5 0.5 c 0 0.273438 -0.222656 0.5 -0.5 0.5 s -0.5 -0.226562 -0.5 -0.5 c 0 -0.277344 0.222656 -0.5 0.5 -0.5 z m 0 0" fill="#ffffff"/>
</svg>
