<?xml version="1.0" encoding="UTF-8"?>
<svg height="16px" viewBox="0 0 16 16" width="16px" xmlns="http://www.w3.org/2000/svg">
    <path d="m 8 2 c -3.648438 0.003906 -6.832031 2.476562 -7.738281 6.011719 c 0.914062 3.523437 4.097656 5.984375 7.738281 5.988281 c 3.648438 -0.003906 6.832031 -2.476562 7.738281 -6.011719 c -0.914062 -3.523437 -4.097656 -5.984375 -7.738281 -5.988281 z m 0 2 c 2.210938 0 4 1.789062 4 4 s -1.789062 4 -4 4 s -4 -1.789062 -4 -4 s 1.789062 -4 4 -4 z m 0 2 c -1.105469 0 -2 0.894531 -2 2 s 0.894531 2 2 2 s 2 -0.894531 2 -2 s -0.894531 -2 -2 -2 z m -0.5 1 c 0.277344 0 0.5 0.222656 0.5 0.5 s -0.222656 0.5 -0.5 0.5 s -0.5 -0.222656 -0.5 -0.5 s 0.222656 -0.5 0.5 -0.5 z m 0 0" fill="#ffffff"/>
</svg>
