<?xml version="1.0" encoding="UTF-8"?>
<svg height="16px" viewBox="0 0 16 16" width="16px" xmlns="http://www.w3.org/2000/svg">
    <path d="m 8 2 c -3.445312 0 -6.285156 2.320312 -7.835938 5.59375 c -0.132812 0.269531 -0.1289058 0.585938 0 0.859375 c 1.554688 3.230469 4.390626 5.546875 7.835938 5.546875 s 6.273438 -2.3125 7.894531 -5.550781 c 0.140625 -0.285157 0.140625 -0.613281 0 -0.898438 c -1.621093 -3.238281 -4.449219 -5.550781 -7.894531 -5.550781 z m 0 2 c 2.578125 0.042969 4.445312 1.71875 5.746094 4 c -1.324219 2.328125 -3.1875 4 -5.746094 4 s -4.460938 -1.6875 -5.734375 -4.035156 c 1.28125 -2.359375 3.15625 -4.007813 5.734375 -3.964844 z m 0 1 c -1.65625 0 -3 1.34375 -3 3 s 1.34375 3 3 3 s 3 -1.34375 3 -3 s -1.34375 -3 -3 -3 z m 0 0" fill="#222222"/>
</svg>
