<?xml version="1.0" encoding="UTF-8"?>
<svg height="24px" viewBox="0 0 24 24" width="24px" xmlns="http://www.w3.org/2000/svg">
    <path d="m 5 5 v 1 c 0 0.277344 0.113281 0.527344 0.292969 0.707031 l 5.292969 5.292969 l -5.292969 5.292969 c -0.179688 0.179687 -0.292969 0.707031 -0.292969 0.707031 v 1 h 1 c 0.265625 0 0.519531 -0.105469 0.707031 -0.292969 l 5.292969 -5.292969 l 5.292969 5.292969 c 0.1875 0.1875 0.441406 0.292969 0.707031 0.292969 h 1 v -1 c 0.003906 -0.328125 -0.113281 -0.527344 -0.292969 -0.707031 l -5.292969 -5.292969 l 5.292969 -5.292969 c 0.179688 -0.179687 0.296875 -0.378906 0.292969 -0.707031 v -1 h -1 c -0.265625 0 -0.519531 0.105469 -0.707031 0.292969 l -5.292969 5.292969 l -5.292969 -5.292969 c -0.1875 -0.1875 -0.441406 -0.292969 -0.707031 -0.292969 z m 0 0" fill="#241f31"/>
</svg>
