<?xml version="1.0" encoding="UTF-8"?>
<svg height="32px" viewBox="0 0 32 32" width="32px" xmlns="http://www.w3.org/2000/svg">
    <g fill="#241f31">
        <path d="m 1 3 c -1 0 -1 1 -1 1 v 23 h 2 v -18 h 30 v -6 z m 3 2 h 4 c 0.554688 0 1 0.445312 1 1 s -0.445312 1 -1 1 h -4 c -0.554688 0 -1 -0.445312 -1 -1 s 0.445312 -1 1 -1 z m 7 0.25 c 0.414062 0 0.75 0.335938 0.75 0.75 s -0.335938 0.75 -0.75 0.75 s -0.75 -0.335938 -0.75 -0.75 s 0.335938 -0.75 0.75 -0.75 z m 0 0"/>
        <path d="m 11 5 h 1 c 0.554688 0 1 0.445312 1 1 s -0.445312 1 -1 1 h -1 c -0.554688 0 -1 -0.445312 -1 -1 s 0.445312 -1 1 -1 z m 0 0" fill-opacity="0.34902"/>
    </g>
</svg>
